<svg class="animated" id="freepik_stories-coach" xmlns="http://www.w3.org/2000/svg" viewBox="0 0 500 500" version="1.1" xmlns:xlink="http://www.w3.org/1999/xlink" xmlns:svgjs="http://svgjs.com/svgjs"><style>svg#freepik_stories-coach:not(.animated) .animable {opacity: 0;}svg#freepik_stories-coach.animated #freepik--background-complete--inject-89 {animation: 1s 1 forwards cubic-bezier(.36,-0.01,.5,1.38) fadeIn;animation-delay: 0s;}svg#freepik_stories-coach.animated #freepik--speech-bubble--inject-89 {animation: 1.5s Infinite  linear floating;animation-delay: 0s;}            @keyframes fadeIn {                0% {                    opacity: 0;                }                100% {                    opacity: 1;                }            }                    @keyframes floating {                0% {                    opacity: 1;                    transform: translateY(0px);                }                50% {                    transform: translateY(-10px);                }                100% {                    opacity: 1;                    transform: translateY(0px);                }            }        </style><g id="freepik--background-complete--inject-89" class="animable animator-active" style="transform-origin: 251.33px 254.955px;"><g id="elp1p6eiikmoa"><rect x="386.01" y="77.05" width="37.98" height="11.19" style="fill: rgb(235, 235, 235); transform-origin: 405px 82.645px; transform: rotate(180deg);" class="animable"></rect></g><path d="M407.2,62.94c6.33-.1,22.29-.36,28.41-.42l9.57,0h.46v.46l0,11.19v.5h-.5l-19-.07c-4.73,0-14.26-.14-19-.21H407v-.22l.22-11.19Zm0,0,.23,11.19-.23-.23c4.74-.06,14.26-.16,19-.2l19-.07-.5.5.05-11.19.45.46-9.41,0c-6-.06-22.34-.31-28.57-.41Z" style="fill: rgb(235, 235, 235); transform-origin: 426.32px 68.595px;" id="el66bnp3fq1f2" class="animable"></path><path d="M364.82,62.94c6.33-.1,22.3-.36,28.41-.42l9.58,0h.45v.46l0,11.19v.5h-.5l-19-.07c-4.73,0-14.27-.14-19-.21h-.23v-.22l.22-11.19Zm0,0,.23,11.19-.23-.23c4.74-.06,14.26-.16,19-.2l19-.07-.5.5,0-11.19.46.46-9.42,0c-6-.06-22.34-.31-28.57-.41Z" style="fill: rgb(235, 235, 235); transform-origin: 383.895px 68.595px;" id="elq7t90wvril" class="animable"></path><path d="M54.82,61.94c6.32-.1,22.29-.36,28.4-.42l9.58,0h.46v.46l0,11.19v.5h-.5l-19-.07c-4.73,0-14.26-.14-19-.21h-.23v-.22l.23-11.19Zm0,0L55,73.13l-.22-.23c4.74-.06,14.25-.16,19-.2l19-.07-.5.5,0-11.19.46.46-9.42,0c-6-.06-22.34-.31-28.56-.41Z" style="fill: rgb(235, 235, 235); transform-origin: 73.895px 67.595px;" id="elnq1vu538ds" class="animable"></path><g id="elc83lrd4mywj"><rect x="76" y="402.99" width="37.98" height="11.19" style="fill: rgb(235, 235, 235); transform-origin: 94.99px 408.585px; transform: rotate(180deg);" class="animable"></rect></g><path d="M54.82,388.88c6.32-.1,22.29-.36,28.4-.42l9.58,0h.46v.46l0,11.19v.5h-.5l-19-.07c-4.73,0-14.26-.14-19-.21h-.23v-.22l.23-11.19Zm0,0L55,400.07l-.22-.23c4.74-.06,14.25-.16,19-.2l19-.07-.5.5,0-11.19.46.46-9.42,0c-6-.06-22.34-.31-28.56-.41Z" style="fill: rgb(235, 235, 235); transform-origin: 73.895px 394.535px;" id="el8d57jnc31uo" class="animable"></path><path d="M407.2,404c6.33-.11,22.29-.36,28.41-.42l9.57,0h.46V404l0,11.19v.5h-.5l-19-.06c-4.73-.05-14.26-.14-19-.21H407v-.22L407.2,404Zm0,0,.23,11.19-.23-.23c4.74-.07,14.26-.16,19-.2l19-.07-.5.5.05-11.19.45.45-9.41,0c-6-.06-22.34-.32-28.57-.41Z" style="fill: rgb(235, 235, 235); transform-origin: 426.32px 409.635px;" id="elz3y1v0cqvld" class="animable"></path><g id="elvn1ezqq7yon"><rect x="137.67" y="166.93" width="37.98" height="11.19" style="fill: rgb(235, 235, 235); transform-origin: 156.66px 172.525px; transform: rotate(180deg);" class="animable"></rect></g><rect x="271.19" y="214.73" width="37.98" height="11.19" style="fill: rgb(235, 235, 235); transform-origin: 290.18px 220.325px;" id="eltktm8naho7" class="animable"></rect><path d="M288,240c-6.33.1-22.29.36-28.41.42l-9.57,0h-.46V240l0-11.19v-.5H250l19,.07c4.72,0,14.26.14,19,.21h.23v.22L288,240Zm0,0-.23-11.19.23.23c-4.74.06-14.26.16-19,.2l-19,.07.49-.5,0,11.19-.45-.46,9.41.05c6,.06,22.34.31,28.57.41Z" style="fill: rgb(235, 235, 235); transform-origin: 268.895px 234.365px;" id="elgmn7pk5so3e" class="animable"></path><rect x="79.48" y="52.55" width="157.17" height="324.78" style="fill: rgb(235, 235, 235); transform-origin: 158.065px 214.94px;" id="elg5qrpvyujz4" class="animable"></rect><rect x="86.43" y="59.12" width="143.27" height="311.65" style="fill: rgb(255, 255, 255); transform-origin: 158.065px 214.945px;" id="elokdouu8v9mk" class="animable"></rect><rect x="79.48" y="134.58" width="157.17" height="6.57" style="fill: rgb(235, 235, 235); transform-origin: 158.065px 137.865px;" id="el8qepr91qmu5" class="animable"></rect><rect x="263.35" y="52.55" width="157.17" height="324.78" style="fill: rgb(235, 235, 235); transform-origin: 341.935px 214.94px;" id="ely07e4qwqxkj" class="animable"></rect><rect x="270.31" y="59.12" width="143.27" height="311.65" style="fill: rgb(255, 255, 255); transform-origin: 341.945px 214.945px;" id="el6522i5qof0x" class="animable"></rect><rect x="263.35" y="134.57" width="157.17" height="6.58" style="fill: rgb(235, 235, 235); transform-origin: 341.935px 137.86px;" id="elhfhqr0foxws" class="animable"></rect><g id="elvsdrwz23rps"><g style="opacity: 0.2; transform-origin: 250.225px 214.945px;" class="animable"><polygon points="229.69 59.54 229.69 69.27 86.88 233.88 86.88 178.9 190.44 59.54 229.69 59.54" style="fill: rgb(235, 235, 235); transform-origin: 158.285px 146.71px;" id="eltk9hbmucgw8" class="animable"></polygon><polygon points="413.57 209.38 413.57 264.36 321.26 370.77 273.56 370.77 413.57 209.38" style="fill: rgb(235, 235, 235); transform-origin: 343.565px 290.075px;" id="elqw1i4j48zl9" class="animable"></polygon><polygon points="229.69 309.17 229.69 336.66 200.09 370.77 176.25 370.77 229.69 309.17" style="fill: rgb(235, 235, 235); transform-origin: 202.97px 339.97px;" id="elz50ff4j7jfq" class="animable"></polygon><polygon points="413.57 97.24 413.57 124.73 405.04 134.57 399.32 141.15 270.31 289.85 263.36 297.86 263.36 270.37 270.31 262.36 375.48 141.15 381.19 134.57 413.57 97.24" style="fill: rgb(235, 235, 235); transform-origin: 338.465px 197.55px;" id="el53dh4chksw5" class="animable"></polygon><polygon points="128.14 59.55 86.88 107.13 86.88 79.62 104.29 59.55 128.14 59.55" style="fill: rgb(235, 235, 235); transform-origin: 107.51px 83.34px;" id="el12jk3z0m5ay" class="animable"></polygon><polygon points="86.88 305.75 229.69 141.12 229.69 147.99 86.88 312.6 86.88 305.75" style="fill: rgb(235, 235, 235); transform-origin: 158.285px 226.86px;" id="elfkz41y35y7n" class="animable"></polygon><polygon points="306.44 59.12 270.31 100.75 270.31 93.88 300.46 59.12 306.44 59.12" style="fill: rgb(235, 235, 235); transform-origin: 288.375px 79.935px;" id="elytfr3xptl6" class="animable"></polygon><polygon points="229.69 274.03 229.69 280.89 151.72 370.77 145.76 370.77 229.69 274.03" style="fill: rgb(235, 235, 235); transform-origin: 187.725px 322.4px;" id="elr1we1odono" class="animable"></polygon><polygon points="413.57 62.08 413.57 68.96 356.64 134.57 350.94 141.15 270.31 234.09 263.36 242.1 263.36 235.23 270.31 227.22 344.98 141.15 350.69 134.57 413.57 62.08" style="fill: rgb(235, 235, 235); transform-origin: 338.465px 152.09px;" id="el1mmujzhqh7r" class="animable"></polygon><polygon points="413.57 345.58 413.57 352.45 397.69 370.77 391.71 370.77 413.57 345.58" style="fill: rgb(235, 235, 235); transform-origin: 402.64px 358.175px;" id="elbx5hmmuvdoa" class="animable"></polygon><polygon points="164.44 59.55 86.88 148.97 86.88 142.09 158.5 59.55 164.44 59.55" style="fill: rgb(235, 235, 235); transform-origin: 125.66px 104.26px;" id="el8k26dmjs7k7" class="animable"></polygon></g></g><rect x="66.19" y="254.81" width="239.39" height="6.96" style="fill: rgb(199, 199, 199); transform-origin: 185.885px 258.29px;" id="el075c4q0szokt" class="animable"></rect><rect x="57.32" y="229.92" width="8.87" height="56.75" style="fill: rgb(199, 199, 199); transform-origin: 61.755px 258.295px;" id="elvmyt16utcmj" class="animable"></rect><rect x="51.45" y="234.62" width="5.87" height="47.34" style="fill: rgb(199, 199, 199); transform-origin: 54.385px 258.29px;" id="elp1che0q7vvl" class="animable"></rect><polygon points="57.32 281.96 55.53 281.96 53.85 234.62 57.32 234.62 57.32 281.96" style="fill: rgb(166, 166, 166); transform-origin: 55.585px 258.29px;" id="el4d1l0lh4b0k" class="animable"></polygon><g id="eloqtycuh5pn"><rect x="305.58" y="229.92" width="8.87" height="56.75" style="fill: rgb(199, 199, 199); transform-origin: 310.015px 258.295px; transform: rotate(180deg);" class="animable"></rect></g><g id="elbvcy9g7826g"><rect x="314.45" y="234.62" width="5.87" height="47.34" style="fill: rgb(199, 199, 199); transform-origin: 317.385px 258.29px; transform: rotate(180deg);" class="animable"></rect></g><polygon points="314.45 234.62 316.24 234.62 317.92 281.96 314.45 281.96 314.45 234.62" style="fill: rgb(166, 166, 166); transform-origin: 316.185px 258.29px;" id="el8jczmt7peaf" class="animable"></polygon><rect x="95.8" y="246.38" width="10.41" height="210.98" style="fill: rgb(219, 219, 219); transform-origin: 101.005px 351.87px;" id="elguo857qnu4l" class="animable"></rect><rect x="265.55" y="246.38" width="10.41" height="210.98" style="fill: rgb(219, 219, 219); transform-origin: 270.755px 351.87px;" id="el1uounv45gn7" class="animable"></rect><rect x="357.73" y="269.05" width="11.59" height="26.47" style="fill: rgb(219, 219, 219); transform-origin: 363.525px 282.285px;" id="el3hh6ouzhblo" class="animable"></rect><rect x="352.16" y="271.89" width="5.57" height="20.78" style="fill: rgb(219, 219, 219); transform-origin: 354.945px 282.28px;" id="el3al0jetot2s" class="animable"></rect><polygon points="357.73 271.89 357.73 292.68 354.95 292.68 355.97 271.89 357.73 271.89" style="fill: rgb(199, 199, 199); transform-origin: 356.34px 282.285px;" id="els8pxiw3crx" class="animable"></polygon><g id="ele9lgvu2oq2t"><rect x="434.05" y="269.05" width="11.59" height="26.47" style="fill: rgb(219, 219, 219); transform-origin: 439.845px 282.285px; transform: rotate(180deg);" class="animable"></rect></g><g id="elj0vf4qh5thp"><rect x="445.64" y="271.89" width="5.57" height="20.78" style="fill: rgb(219, 219, 219); transform-origin: 448.425px 282.28px; transform: rotate(180deg);" class="animable"></rect></g><polygon points="445.63 292.67 445.63 271.88 448.42 271.88 447.4 292.67 445.63 292.67" style="fill: rgb(199, 199, 199); transform-origin: 447.025px 282.275px;" id="elllrc63qhqs" class="animable"></polygon><rect x="369.32" y="277.26" width="64.73" height="10.05" style="fill: rgb(199, 199, 199); transform-origin: 401.685px 282.285px;" id="el6d7ioj70x2k" class="animable"></rect><rect x="357.73" y="302.9" width="11.59" height="26.47" style="fill: rgb(219, 219, 219); transform-origin: 363.525px 316.135px;" id="elnu026sdnqhb" class="animable"></rect><rect x="352.16" y="305.74" width="5.57" height="20.78" style="fill: rgb(219, 219, 219); transform-origin: 354.945px 316.13px;" id="elk2zpfceq2" class="animable"></rect><polygon points="357.73 305.75 357.73 326.53 354.95 326.53 355.97 305.75 357.73 305.75" style="fill: rgb(199, 199, 199); transform-origin: 356.34px 316.14px;" id="eldpdqufvt458" class="animable"></polygon><g id="el1q4le3omkes"><rect x="434.05" y="302.9" width="11.59" height="26.47" style="fill: rgb(219, 219, 219); transform-origin: 439.845px 316.135px; transform: rotate(180deg);" class="animable"></rect></g><g id="elujhpwe0fjui"><rect x="445.64" y="305.74" width="5.57" height="20.78" style="fill: rgb(219, 219, 219); transform-origin: 448.425px 316.13px; transform: rotate(180deg);" class="animable"></rect></g><polygon points="445.63 326.52 445.63 305.74 448.42 305.74 447.4 326.52 445.63 326.52" style="fill: rgb(199, 199, 199); transform-origin: 447.025px 316.13px;" id="elh0plya851lf" class="animable"></polygon><rect x="369.32" y="311.11" width="64.73" height="10.05" style="fill: rgb(199, 199, 199); transform-origin: 401.685px 316.135px;" id="elgt0tci24uag" class="animable"></rect><rect x="357.73" y="336.76" width="11.59" height="26.47" style="fill: rgb(219, 219, 219); transform-origin: 363.525px 349.995px;" id="el6jj7b6x6wed" class="animable"></rect><rect x="352.16" y="339.6" width="5.57" height="20.78" style="fill: rgb(219, 219, 219); transform-origin: 354.945px 349.99px;" id="elvobc6adk0a" class="animable"></rect><polygon points="357.73 339.6 357.73 360.39 354.95 360.39 355.97 339.6 357.73 339.6" style="fill: rgb(199, 199, 199); transform-origin: 356.34px 349.995px;" id="elmhvcvgylp99" class="animable"></polygon><g id="el6ozsj527zzx"><rect x="434.05" y="336.76" width="11.59" height="26.47" style="fill: rgb(219, 219, 219); transform-origin: 439.845px 349.995px; transform: rotate(180deg);" class="animable"></rect></g><g id="elnlwhjm5ryy"><rect x="445.64" y="339.6" width="5.57" height="20.78" style="fill: rgb(219, 219, 219); transform-origin: 448.425px 349.99px; transform: rotate(180deg);" class="animable"></rect></g><polygon points="445.63 360.38 445.63 339.6 448.42 339.6 447.4 360.38 445.63 360.38" style="fill: rgb(199, 199, 199); transform-origin: 447.025px 349.99px;" id="elfql1dfxsm7n" class="animable"></polygon><rect x="369.32" y="344.97" width="64.73" height="10.05" style="fill: rgb(199, 199, 199); transform-origin: 401.685px 349.995px;" id="elwc7x7jf9tue" class="animable"></rect><rect x="357.73" y="370.61" width="11.59" height="26.47" style="fill: rgb(219, 219, 219); transform-origin: 363.525px 383.845px;" id="ellp02fbag14" class="animable"></rect><rect x="352.16" y="373.46" width="5.57" height="20.78" style="fill: rgb(219, 219, 219); transform-origin: 354.945px 383.85px;" id="elascuwuqj2e9" class="animable"></rect><polygon points="357.73 373.46 357.73 394.24 354.95 394.24 355.97 373.46 357.73 373.46" style="fill: rgb(199, 199, 199); transform-origin: 356.34px 383.85px;" id="elztbenuqx2f" class="animable"></polygon><g id="el3pcau9q3y15"><rect x="434.05" y="370.61" width="11.59" height="26.47" style="fill: rgb(219, 219, 219); transform-origin: 439.845px 383.845px; transform: rotate(180deg);" class="animable"></rect></g><g id="ele8vseajcb0p"><rect x="445.64" y="373.46" width="5.57" height="20.78" style="fill: rgb(219, 219, 219); transform-origin: 448.425px 383.85px; transform: rotate(180deg);" class="animable"></rect></g><polygon points="445.63 394.24 445.63 373.45 448.42 373.45 447.4 394.24 445.63 394.24" style="fill: rgb(199, 199, 199); transform-origin: 447.025px 383.845px;" id="elytdf73rj3gc" class="animable"></polygon><rect x="369.32" y="378.82" width="64.73" height="10.05" style="fill: rgb(199, 199, 199); transform-origin: 401.685px 383.845px;" id="eltpuq33z76ob" class="animable"></rect><rect x="357.73" y="404.47" width="11.59" height="26.47" style="fill: rgb(219, 219, 219); transform-origin: 363.525px 417.705px;" id="elh8ogc6chush" class="animable"></rect><rect x="352.16" y="407.31" width="5.57" height="20.78" style="fill: rgb(219, 219, 219); transform-origin: 354.945px 417.7px;" id="elhjh4euqr3kw" class="animable"></rect><polygon points="357.73 407.31 357.73 428.1 354.95 428.1 355.97 407.31 357.73 407.31" style="fill: rgb(199, 199, 199); transform-origin: 356.34px 417.705px;" id="el2uwhtvv3fag" class="animable"></polygon><g id="eliduufrm3i3m"><rect x="434.05" y="404.47" width="11.59" height="26.47" style="fill: rgb(219, 219, 219); transform-origin: 439.845px 417.705px; transform: rotate(180deg);" class="animable"></rect></g><g id="elh5kzxbthjo4"><rect x="445.64" y="407.31" width="5.57" height="20.78" style="fill: rgb(219, 219, 219); transform-origin: 448.425px 417.7px; transform: rotate(180deg);" class="animable"></rect></g><polygon points="445.63 428.09 445.63 407.31 448.42 407.31 447.4 428.09 445.63 428.09" style="fill: rgb(199, 199, 199); transform-origin: 447.025px 417.7px;" id="el81eve88wi52" class="animable"></polygon><rect x="369.32" y="412.68" width="64.73" height="10.05" style="fill: rgb(199, 199, 199); transform-origin: 401.685px 417.705px;" id="el7zyx0zxwp56" class="animable"></rect><rect x="373.8" y="269.53" width="8.71" height="187.83" style="fill: rgb(219, 219, 219); transform-origin: 378.155px 363.445px;" id="elzrnflfv8jn8" class="animable"></rect><rect x="420.86" y="269.53" width="8.71" height="187.83" style="fill: rgb(219, 219, 219); transform-origin: 425.215px 363.445px;" id="elujgo52toslh" class="animable"></rect></g><g id="freepik--Floor--inject-89" class="animable" style="transform-origin: 249px 457.53px;"><path d="M46.44,457.53c129.77-.61,275.35-.62,405.12,0-129.77.62-275.35.61-405.12,0Z" style="fill: rgb(38, 50, 56); transform-origin: 249px 457.53px;" id="el7olfx6efc6b" class="animable"></path></g><g id="freepik--character-2--inject-89" class="animable" style="transform-origin: 380.232px 274.422px;"><path d="M311.19,458c2.4.78,70.86-.09,73.45-1.78,1-.63,1.44-10.61,1.65-22.69v-.38c0-2.49.08-5.05.08-7.65,0-.36,0-.71,0-1.07l-3.32-35.52-45.8.45,4.52,35.18,0,1.4.27,7.28,0,.75s-26.06,12.06-28.7,14.21S308.78,457.19,311.19,458Z" style="fill: rgb(173, 99, 89); transform-origin: 348.229px 423.599px;" id="el2548atc3b3z" class="animable"></path><path d="M311.19,458c2.4.78,70.86-.09,73.45-1.78,1-.63,1.44-10.61,1.65-22.69v-.38c0-2.49.08-5.05.08-7.65,0-.36,0-.71,0-1.07l-44.6.11,0,1.4.27,7.28,0,.75s-26.06,12.06-28.7,14.21S308.78,457.19,311.19,458Z" style="fill: rgb(235, 235, 235); transform-origin: 348.229px 441.359px;" id="ellh4p8drqy3" class="animable"></path><path d="M310,458.65c2.48.82,73.3.57,76-1.14,1-.65,2.05-11.57,1-23.64l-45.66.21s-26.19,12.23-28.95,14.43S307.54,457.83,310,458.65Z" style="fill: rgb(146, 227, 169); transform-origin: 348.172px 446.486px;" id="el1gyzcqdyhu7" class="animable"></path><path d="M311,455.82c11.88-.34,59.79-.56,71.55,0,.09,0,.1.07,0,.08-11.76.58-59.67.42-71.55.1C310.77,456,310.77,455.82,311,455.82Z" style="fill: rgb(38, 50, 56); transform-origin: 346.724px 455.883px;" id="elryh8nx5h0e" class="animable"></path><path d="M317,446a9.5,9.5,0,0,1,7.11,2.87,9.28,9.28,0,0,1,2.68,6.33c0,.07-.13.07-.14,0a11,11,0,0,0-9.65-9C316.9,446.09,316.89,446,317,446Z" style="fill: rgb(38, 50, 56); transform-origin: 321.856px 450.624px;" id="elg73329478j" class="animable"></path><path d="M337.67,435.28c4.75-.08,10.27,1.58,13.24,5.45.11.16-.1.32-.25.24a65.51,65.51,0,0,0-13.07-5.1A.3.3,0,0,1,337.67,435.28Z" style="fill: rgb(38, 50, 56); transform-origin: 344.154px 438.134px;" id="elbn6aasuz20a" class="animable"></path><path d="M334,436.73c4.75-.09,10.27,1.57,13.23,5.45.12.15-.1.31-.24.24a65.54,65.54,0,0,0-13.07-5.11A.3.3,0,0,1,334,436.73Z" style="fill: rgb(38, 50, 56); transform-origin: 340.495px 439.582px;" id="elxho2it06u7c" class="animable"></path><path d="M330.34,438.17c4.76-.08,10.27,1.58,13.24,5.45.11.15-.1.31-.24.24a65.86,65.86,0,0,0-13.08-5.11A.3.3,0,0,1,330.34,438.17Z" style="fill: rgb(38, 50, 56); transform-origin: 336.838px 441.022px;" id="el7gou9cgfzbc" class="animable"></path><path d="M326.68,439.61c4.75-.08,10.27,1.58,13.24,5.45.11.15-.1.32-.25.24a65.51,65.51,0,0,0-13.07-5.1A.3.3,0,0,1,326.68,439.61Z" style="fill: rgb(38, 50, 56); transform-origin: 333.164px 442.464px;" id="elu51v9f4eafo" class="animable"></path><path d="M379.51,444.57c5.33,0,5.34,8.28,0,8.28S374.16,444.57,379.51,444.57Z" style="fill: rgb(38, 50, 56); transform-origin: 379.506px 448.71px;" id="elis43z4dgwlr" class="animable"></path><path d="M332.9,429.59c2.57,3.3,6.49,5.36,9.88,7.69a.58.58,0,0,0,.85-.38.13.13,0,0,0,.15-.14,25,25,0,0,0-4.36-12.14c-1.49-2.06-4.53-4-6.93-2S331.39,427.66,332.9,429.59Zm-.24-3.94c.46-5.17,5.13-1.22,6.17.35a26.12,26.12,0,0,1,1.75,3.2c1.09,2.28,1.84,4.67,2.7,7-1.59-1.25-3.28-2.34-4.92-3.53C336.4,431.29,332.41,428.5,332.66,425.65Z" style="fill: rgb(38, 50, 56); transform-origin: 337.472px 429.567px;" id="elwuafqd28zi" class="animable"></path><path d="M360.64,433.67c-.38-3.1-3.92-3.76-6.42-3.27a24.88,24.88,0,0,0-11.48,5.88.14.14,0,0,0,0,.21.57.57,0,0,0,.36.86c4.06.62,8.34,1.78,12.47,1.13C358,438.1,361,436.6,360.64,433.67ZM349.47,437c-2-.25-4-.6-6-.78a74.12,74.12,0,0,1,6.77-3.29,27,27,0,0,1,3.46-1.15c1.83-.43,7.95-.12,4.75,4C356.69,438,351.87,437.33,349.47,437Z" style="fill: rgb(38, 50, 56); transform-origin: 351.661px 434.463px;" id="el5ogi46hud1x" class="animable"></path><g id="el47cz0pgtdbc"><path d="M347.11,459c18.63-.17,37.54-.66,38.9-1.53,1-.65,2.06-11.58,1-23.64l-11.74.05Z" style="opacity: 0.1; transform-origin: 367.28px 446.415px;" class="animable"></path></g><path d="M339.48,433.32h49.31s-9.91-115.17-9.52-117.18c.49-2.57,3.41-14.23,7.29-29.46,1.21-4.76,2.52-9.87,3.88-15.17,3.68-14.33,7.74-30,11.27-43.61C407,207.5,411.16,197,411.16,197H369.37S335,295.33,333.65,315.65C332.45,333.38,339.48,433.32,339.48,433.32Z" style="fill: rgb(38, 50, 56); transform-origin: 372.336px 315.16px;" id="el374iwreh3o" class="animable"></path><path d="M341.66,424.91c7.53-.16,5.37-.22,12.9-.29,3.69,0,27.91-.24,31.35.33a.08.08,0,0,1,0,.16c-3.44.57-27.66.35-31.35.31-7.53-.07-5.37-.13-12.9-.29A.11.11,0,0,1,341.66,424.91Z" style="fill: rgb(55, 71, 79); transform-origin: 363.771px 425.032px;" id="elznmwx5c0rjr" class="animable"></path><path d="M370,309.11c1.62-7.12,4-14.11,6.14-21.11,4.28-14.21,25.1-76.28,26.09-79.81.4-1.44.62-.65.1,1.17-1,3.68-18.17,56.35-22.5,70.78q-3.26,10.85-6.53,21.7a88.08,88.08,0,0,0-2.67,10.49,48.53,48.53,0,0,0-.44,11.23c.47,7.54,1.35,15.08,2,22.6s1.39,15.09,2.09,22.63q2.08,22.51,4.12,45c.17,1.9.34,3.8.48,5.71,0,.63-.39.59-.45,0-1.62-14.84-3.39-29.73-4.78-44.6s-2.77-29.58-4.15-44.37c-.34-3.72-.74-7.44-.74-11.17A46.62,46.62,0,0,1,370,309.11Z" style="fill: rgb(255, 255, 255); transform-origin: 385.698px 313.702px;" id="elkesgrcqmdmh" class="animable"></path><path d="M373.74,309.11c1.62-7.12,4-14.11,6.14-21.11,4.28-14.21,25.1-76.28,26.09-79.81.4-1.44.62-.65.11,1.17C405,213,387.9,265.71,383.57,280.14Q380.31,291,377,301.84a88.08,88.08,0,0,0-2.67,10.49,48.53,48.53,0,0,0-.44,11.23c.48,7.54,1.35,15.08,2,22.6s1.39,15.09,2.09,22.63q2.08,22.51,4.12,45c.17,1.9.34,3.8.49,5.71,0,.63-.4.59-.46,0-1.62-14.84-3.39-29.73-4.78-44.6s-2.77-29.58-4.15-44.37c-.34-3.72-.74-7.44-.74-11.17A46.62,46.62,0,0,1,373.74,309.11Z" style="fill: rgb(255, 255, 255); transform-origin: 389.419px 313.702px;" id="elaxw7zrszfa7" class="animable"></path><path d="M374.11,197c2.9,22.45,8.42,59.19,12.45,89.72,9.43-37,24.6-89.71,24.6-89.71Z" style="fill: rgb(55, 71, 79); transform-origin: 392.635px 241.86px;" id="eleirrani9vl6" class="animable"></path><path d="M362.18,458.63c2.4.78,70.87.16,73.46-1.52,1-.63,1.48-10.61,1.73-22.69v-.37c.06-2.49.1-5.06.11-7.65,0-.36,0-.72,0-1.08.17-17.43-1.09-35.51-1.09-35.51l-44.75.28,1.24,35.19.05,1.39.25,7.28,0,.75s-26.1,12-28.76,14.11S359.78,457.85,362.18,458.63Z" style="fill: rgb(173, 99, 89); transform-origin: 399.298px 424.387px;" id="elytqu0add00m" class="animable"></path><path d="M362.18,458.63c2.4.78,70.87.16,73.46-1.52,1-.63,1.48-10.61,1.73-22.69v-.37c.06-2.49.1-5.06.11-7.65,0-.36,0-.72,0-1.08l-44.6,0,.05,1.39.25,7.28,0,.75s-26.1,12-28.76,14.11S359.78,457.85,362.18,458.63Z" style="fill: rgb(235, 235, 235); transform-origin: 399.29px 442.142px;" id="elwyelaqirp5q" class="animable"></path><path d="M360.45,458.65c2.48.82,73.3.57,76-1.14,1-.65,2.05-11.57,1-23.64l-45.66.21s-26.19,12.23-28.95,14.43S358,457.83,360.45,458.65Z" style="fill: rgb(146, 227, 169); transform-origin: 398.624px 446.486px;" id="el132xqwddt68j" class="animable"></path><path d="M361.45,455.82c11.88-.34,59.79-.56,71.55,0,.09,0,.1.07,0,.08-11.76.58-59.67.42-71.55.1C361.2,456,361.2,455.82,361.45,455.82Z" style="fill: rgb(38, 50, 56); transform-origin: 397.167px 455.883px;" id="elbkkq9qid7h6" class="animable"></path><path d="M367.42,446a9.5,9.5,0,0,1,7.11,2.87,9.28,9.28,0,0,1,2.68,6.33c0,.07-.13.07-.14,0a11,11,0,0,0-9.65-9C367.33,446.09,367.32,446,367.42,446Z" style="fill: rgb(38, 50, 56); transform-origin: 372.279px 450.624px;" id="elts2ikvhm45" class="animable"></path><path d="M388.1,435.28c4.75-.08,10.27,1.58,13.24,5.45.11.16-.1.32-.25.24a65.51,65.51,0,0,0-13.07-5.1A.3.3,0,0,1,388.1,435.28Z" style="fill: rgb(38, 50, 56); transform-origin: 394.584px 438.134px;" id="el6i759sgxqex" class="animable"></path><path d="M384.44,436.73c4.75-.09,10.27,1.57,13.23,5.45.12.15-.1.31-.24.24a65.54,65.54,0,0,0-13.07-5.11A.3.3,0,0,1,384.44,436.73Z" style="fill: rgb(38, 50, 56); transform-origin: 390.935px 439.582px;" id="eli0x2jekgju" class="animable"></path><path d="M380.77,438.17c4.76-.08,10.27,1.58,13.24,5.45.11.15-.1.31-.24.24a65.86,65.86,0,0,0-13.08-5.11A.3.3,0,0,1,380.77,438.17Z" style="fill: rgb(38, 50, 56); transform-origin: 387.268px 441.022px;" id="elktiw3d92tsp" class="animable"></path><path d="M377.11,439.61c4.75-.08,10.27,1.58,13.24,5.45.11.15-.1.32-.25.24A65.51,65.51,0,0,0,377,440.2.3.3,0,0,1,377.11,439.61Z" style="fill: rgb(38, 50, 56); transform-origin: 383.568px 442.463px;" id="el08otinxl3rlq" class="animable"></path><path d="M429.94,444.57c5.33,0,5.34,8.28,0,8.28S424.59,444.57,429.94,444.57Z" style="fill: rgb(38, 50, 56); transform-origin: 429.936px 448.71px;" id="elsfcvcfpdbhh" class="animable"></path><path d="M383.33,429.59c2.57,3.3,6.49,5.36,9.88,7.69a.58.58,0,0,0,.85-.38c.08,0,.16,0,.15-.14a25,25,0,0,0-4.36-12.14c-1.49-2.06-4.53-4-6.93-2S381.82,427.66,383.33,429.59Zm-.24-3.94c.46-5.17,5.13-1.22,6.17.35a26.12,26.12,0,0,1,1.75,3.2c1.09,2.28,1.84,4.67,2.7,7-1.59-1.25-3.28-2.34-4.92-3.53C386.83,431.29,382.84,428.5,383.09,425.65Z" style="fill: rgb(38, 50, 56); transform-origin: 387.902px 429.567px;" id="elydfbmopu6e" class="animable"></path><path d="M411.07,433.67c-.38-3.1-3.92-3.76-6.42-3.27a24.88,24.88,0,0,0-11.48,5.88.14.14,0,0,0,0,.21.57.57,0,0,0,.36.86c4.06.62,8.34,1.78,12.47,1.13C408.44,438.1,411.44,436.6,411.07,433.67ZM399.9,437c-2-.25-4-.6-6-.78a74.12,74.12,0,0,1,6.77-3.29,26.61,26.61,0,0,1,3.47-1.15c1.82-.43,7.94-.12,4.74,4C407.12,438,402.3,437.33,399.9,437Z" style="fill: rgb(38, 50, 56); transform-origin: 402.092px 434.463px;" id="el9ut3izh52gw" class="animable"></path><path d="M369.65,197a161.34,161.34,0,0,0,5.54,30.49c.36,1.31.76,2.6,1.19,3.84,0,0,3.7,1.73,11,6.19,0,0,.48,16.09,1,34,.53,20.06,1.08,42.43,1,47.17-.42,17.75,2.2,115.37,2.2,115.37l49.3.21s-8.89-109-8.83-115.52c.1-10.45-2.37-56.65-4.28-90.34-1.17-20.76-2.13-31.43-2.13-31.43Z" style="fill: rgb(38, 50, 56); transform-origin: 405.265px 315.625px;" id="elksxuz26afyb" class="animable"></path><path d="M393.16,425.29c7.53-.13,5.37-.2,12.9-.23,3.69,0,27.91-.13,31.35.46.07,0,.07.14,0,.15-3.45.56-27.67.24-31.35.19-7.54-.11-5.37-.16-12.9-.35A.11.11,0,0,1,393.16,425.29Z" style="fill: rgb(55, 71, 79); transform-origin: 415.257px 425.522px;" id="elka5wk0n6bzr" class="animable"></path><path d="M421.58,204.14c1,28.3,2,51.12,3.3,79.42s3.08,56.78,5.53,85.1c1.37,15.83,2.66,38.08,4.42,53.87,0,.11-.16.15-.17,0-3.8-28.08-5.92-62.81-7.8-91.07s-3.15-56.56-4.15-84.85c-.56-16-1-26.52-1.49-42.53C421.21,203.89,421.57,203.91,421.58,204.14Z" style="fill: rgb(255, 255, 255); transform-origin: 428.025px 313.29px;" id="elybsjscgp6xl" class="animable"></path><path d="M418.14,204.13c1,28.31,2,51.13,3.3,79.43s3.08,56.77,5.53,85.1c1.36,15.82,2.66,38.08,4.41,53.87,0,.11-.15.15-.17,0-3.79-28.09-5.92-62.81-7.79-91.07s-3.15-56.56-4.15-84.85c-.57-16-1-26.53-1.49-42.53C417.77,203.89,418.13,203.91,418.14,204.13Z" style="fill: rgb(255, 255, 255); transform-origin: 424.58px 313.289px;" id="elmlvem3zunib" class="animable"></path><path d="M419.49,222c-1.21-.31-2.51-.41-3.75-.61-1-.16-2-.33-3-.55a13,13,0,0,1-5.27-2.22c-2.46-1.92-5.28-11.66-5.62-12.28-.59-1.06-.77-.13-.77,0,0,1.13,2.59,9.66,3.59,11.25,1.83,2.91,5.1,4.08,8.37,4.5.93.12,1.88.18,2.82.24a20.28,20.28,0,0,0,3.57,0A.16.16,0,0,0,419.49,222Z" style="fill: rgb(55, 71, 79); transform-origin: 410.354px 214.124px;" id="el1r1y8jncce7" class="animable"></path><path d="M376.54,231.53A88.43,88.43,0,0,1,390.42,238a.15.15,0,0,1-.13.28c-4.67-2-9.44-3.93-14-6.19A.31.31,0,0,1,376.54,231.53Z" style="fill: rgb(55, 71, 79); transform-origin: 383.328px 234.906px;" id="elhq5bka6dxpb" class="animable"></path><path d="M375.13,199.49c0-.16.3-.19.3,0a154.87,154.87,0,0,0,.78,15.63c.22,2.41,2.16,15.72,6.33,14.75.7-.16,1.06-.85,1.17-1.9a16.86,16.86,0,0,0-.56-4.09c-.46-2.78-.83-5.58-1.07-8.4a76.07,76.07,0,0,1,.17-15.75.14.14,0,0,1,.27,0,143.63,143.63,0,0,0,1.27,21.74c.52,3.47,2.27,8.68-1.35,9.21s-6.08-8.19-6.53-10.58A79.46,79.46,0,0,1,375.13,199.49Z" style="fill: rgb(55, 71, 79); transform-origin: 379.731px 215.031px;" id="el3ns0penkvya" class="animable"></path><path d="M382.43,230.21a23,23,0,0,1,.94,2.76,6.34,6.34,0,0,1,.39,2.27c0,.15-.21.16-.29.06a8.12,8.12,0,0,1-1-2.21c-.32-.85-.65-1.7-.95-2.56A.47.47,0,0,1,382.43,230.21Z" style="fill: rgb(55, 71, 79); transform-origin: 382.627px 232.627px;" id="el09yd8ayjuv6m" class="animable"></path><path d="M389.13,148c-5.75,17.88-21.06,48.22-30.09,42.13-13.51-9.12-24.41-31.38-28.76-40.39-2.44-5.05,22.19-16.64,24.35-12.05,3.08,6.52,9.46,20.12,11.8,21.89,1.24.93,8.63-12.34,14.62-18.91C389.69,131.21,391,142.29,389.13,148Z" style="fill: rgb(173, 99, 89); transform-origin: 359.991px 163.781px;" id="el20uximb7mop" class="animable"></path><path d="M323,138.22c1.86,5.35,9.95,14.78,12.77,16.31s19.46-11.18,19.4-14.47-7.85-21.31-12.74-24.38S321,132.69,323,138.22Z" style="fill: rgb(173, 99, 89); transform-origin: 339.002px 135.01px;" id="ellheh0sf6ivq" class="animable"></path><path d="M354.24,136.34a46.6,46.6,0,0,1,2.6-13.4c2-5.08,5.5-12.39,2.81-13.56-5.52-2.41-14.3,15.84-14.3,15.84s-2.58,8.68,2.68,11.54A6,6,0,0,0,354.24,136.34Z" style="fill: rgb(173, 99, 89); transform-origin: 352.673px 123.296px;" id="el844ny8dbc3c" class="animable"></path><path d="M349,121.91c-.62,2.93-3.72.52-3.72.52s3.63,4.55,1.82,7.33-5.4-.38-5.66-.59c.19.24,3.41,4.51,1.31,7.11s-5.33-1-5.53-1.22c.11.29,1.47,4.08-.58,5.69-3.52,2.77-7.26-6.82-10.64-8.14,0,0-2.89,5.47-3,5.61s-3.75-9.06-1.71-13.52a3.12,3.12,0,0,1,3.47-1.81s-1.53-2.79.07-4.89c.82-1.08,3.27-.73,3.27-.73a3.92,3.92,0,0,1,.4-4.06c1.22-1.43,3.49-.85,3.49-.85s-.07-2.69,1.65-3.75C337.07,106.48,350.3,115.63,349,121.91Z" style="fill: rgb(173, 99, 89); transform-origin: 334.88px 124.772px;" id="elj6f3u64cx5c" class="animable"></path><path d="M332.33,112.4s0-.1,0-.08a28,28,0,0,1,13.07,10.23c.1.15-.11.37-.25.23A57,57,0,0,0,332.33,112.4Z" style="fill: rgb(38, 50, 56); transform-origin: 338.878px 117.571px;" id="el8ahqmgrr9g6" class="animable"></path><path d="M328,117.2s0-.12.06-.09a26.09,26.09,0,0,1,13.57,12c.09.19,0,.46-.14.25C339.34,125.76,332.53,119.78,328,117.2Z" style="fill: rgb(38, 50, 56); transform-origin: 334.833px 123.271px;" id="elsxevrgnqyr" class="animable"></path><path d="M337.26,135.53C334.34,130.17,330,126.3,325,123a.07.07,0,0,1,.07-.11c2.91,1,5.9,3.42,8.06,5.54a16,16,0,0,1,4.37,7C337.48,135.53,337.33,135.64,337.26,135.53Z" style="fill: rgb(38, 50, 56); transform-origin: 331.243px 129.232px;" id="eluq5cxa7va5n" class="animable"></path><path d="M345.36,122.44c.12.18-.28.15-.17.34.48.77,2.91,5.68,1.5,7-1.14,1.08-3.38.3-4.12-.34l-1.87-1.6,1.2,2.16a10.21,10.21,0,0,1,1.13,3.05,3.59,3.59,0,0,1-.51,2.9,2.06,2.06,0,0,1-2.49.72,6.18,6.18,0,0,1-2.44-1.93l-1.83-2.26,1,2.72a9.5,9.5,0,0,1,.53,2.36,3.89,3.89,0,0,1-.36,2.22,1.87,1.87,0,0,1-1.69,1,4.2,4.2,0,0,1-2.05-1,34.61,34.61,0,0,1-3.47-3.67c-.56-.65-1.12-1.3-1.71-1.92a6.1,6.1,0,0,0-2-1.55,6.7,6.7,0,0,1,1.85,1.71c.53.66,1,1.34,1.55,2a26.92,26.92,0,0,0,3.35,3.93,4.73,4.73,0,0,0,2.41,1.31,2.6,2.6,0,0,0,2.55-1.33,4.78,4.78,0,0,0,.52-2.74,10.36,10.36,0,0,0-.55-2.63l-.85.46a7.26,7.26,0,0,0,2.86,2.32,3,3,0,0,0,2,.09,3.37,3.37,0,0,0,1.61-1.18,4.55,4.55,0,0,0,.64-3.66,10.5,10.5,0,0,0-1.29-3.35l-.67.56c1,.77,3.38,1.92,5.35.46C349.62,128.32,346.07,123.31,345.36,122.44Z" style="fill: rgb(38, 50, 56); transform-origin: 337.052px 132.022px;" id="el1doc8ihvgvt" class="animable"></path><path d="M345.26,122.43A6,6,0,0,0,347,123a1.36,1.36,0,0,0,1.32-.48,2.81,2.81,0,0,0,.43-1.55c0-.61,0-1.24,0-1.9a4.86,4.86,0,0,1,.69,1.86A2.82,2.82,0,0,1,349,123a2,2,0,0,1-1,.65,2.14,2.14,0,0,1-1.13,0A3.24,3.24,0,0,1,345.26,122.43Z" style="fill: rgb(38, 50, 56); transform-origin: 347.372px 121.398px;" id="elj48co9q39sr" class="animable"></path><path d="M356.83,137.64l-23.13,20.7s1.34,2.14,3.19,5.52c.49.9-.15,6.24,1.13,8.25,6.6,10.28,18,21.53,24.68,20.73,10.64-1.27,23.07-29.72,27.12-41.87s-.22-21.59-9.79-9.86-12.93,16.48-13.3,16.38-1.31-5-3.56-10.2c-.55-1.26-3.18-3.15-3.71-4.32C359,142.06,356.83,137.64,356.83,137.64Z" style="fill: rgb(146, 227, 169); transform-origin: 362.523px 164.314px;" id="eltqrvnk9orro" class="animable"></path><path d="M366.41,156.86a71.74,71.74,0,0,1,3.72,8.81c.54,1.48,1,3,1.47,4.5a34.26,34.26,0,0,1,1.13,4.57s-.07.06-.1,0c-.63-1.44-1.16-2.95-1.67-4.43s-1.07-3-1.58-4.46c-1-3-2.17-5.94-3.11-9C366.24,156.82,366.37,156.78,366.41,156.86Z" style="fill: rgb(38, 50, 56); transform-origin: 369.498px 165.79px;" id="elq3e34cn9ab9" class="animable"></path><path d="M357.72,145.45c-1.18.94-2.29,2-3.41,3s-2.24,2-3.34,3.05c-2.2,2.07-4.39,4.14-6.56,6.25-.59.57-1.18,1.15-1.76,1.74s-1.17,1.33-1.8,2c-.05,0,0,.12.08.08.55-.5,1.17-.92,1.73-1.41s1.15-1,1.72-1.54q1.67-1.53,3.32-3.07c2.2-2.06,4.4-4.14,6.54-6.27,1.2-1.2,2.45-2.38,3.59-3.66C357.9,145.49,357.8,145.39,357.72,145.45Z" style="fill: rgb(38, 50, 56); transform-origin: 349.342px 153.505px;" id="elltf9ny19hnc" class="animable"></path><g id="el028gakvxa441"><path d="M348.46,184.88c5.1,5,10.44,8.42,14.24,8,10.64-1.27,23.07-29.72,27.12-41.87,2.33-7,1.91-13.1-.71-14.77Z" style="opacity: 0.1; transform-origin: 369.903px 164.577px;" class="animable"></path></g><path d="M364.87,210.11,427.18,212a19.81,19.81,0,0,0-.2-3.61c0-.19,3.25-2.93,2.73-5.79-3.06-16.7-14.68-52.7-23.74-64.73-4.54-6-16.77-5.6-21.35,2.19-6.33,10.75-17.1,44.16-20.76,61.09-.43,2,1.7,5.51,1.69,6.14Z" style="fill: rgb(146, 227, 169); transform-origin: 396.784px 172.874px;" id="elbplxmuepq1v" class="animable"></path><g id="el60h14bozg4r"><path d="M409.25,203.47l-4.36-9.85.17.09a7.52,7.52,0,0,1-4.78-.91,9.54,9.54,0,0,1-3.44-3.47l-.33-.51c-.1-.18-.18-.37-.28-.55l-.53-1.11c-.27-.77-.58-1.53-.8-2.31s-.42-1.57-.56-2.37l-.4-2.41.31.29-15.35-.44.38-.34a27.87,27.87,0,0,1-.57,3.77,22.33,22.33,0,0,1-1.13,3.65,12.73,12.73,0,0,1-1.94,3.34,8.08,8.08,0,0,1-3.14,2.33l.23-.27-2.29,9.92-.33-.42c6.47.2,12.95.47,19.46.75Zm0,0-19.47-.4c-6.53-.13-13.11-.27-19.69-.47l-.43,0,.1-.41,2.24-9.94,0-.19.19-.08a7.11,7.11,0,0,0,2.81-2.12,12.42,12.42,0,0,0,1.83-3.14,21.07,21.07,0,0,0,1.11-3.51,27,27,0,0,0,.57-3.66l0-.35h.34l15.35.53h.27l0,.27.35,2.37c.13.78.35,1.55.52,2.33s.49,1.51.74,2.26l.5,1.08c.08.18.16.36.25.53l.31.51a9.16,9.16,0,0,0,3.24,3.36,7.29,7.29,0,0,0,4.51,1l.13,0,0,.11Z" style="opacity: 0.1; transform-origin: 389.455px 191.335px;" class="animable"></path></g><g id="el4u0amhbxsdi"><path d="M367.67,206.8c18.93-.06,38,.56,56.87,1.84-18.94.06-38-.55-56.87-1.84Z" style="opacity: 0.1; transform-origin: 396.105px 207.72px;" class="animable"></path></g><g id="el8eonhe1jm9o"><path d="M394.44,158c3.45-.17,6.9-.27,10.35-.34.2,2.57.38,5.13.49,7.71,0,.31.06,1.1.05,1.39a1.74,1.74,0,0,1,0,.61.87.87,0,0,1-.25.36,23,23,0,0,1-4.6,3c-.33.15-.95.5-1.46.29a18.6,18.6,0,0,1-3.71-2.63A5.55,5.55,0,0,1,394,167a20.9,20.9,0,0,1-.09-4.1l.19-3.7v-.3h.3c3,0,5.95.12,8.93.25-3,.17-5.95.29-8.93.38l.31-.3c0,2.11-.09,5.27.08,7.31,0,.13,0,.11.07.2a20,20,0,0,0,2.39,2,11,11,0,0,0,2.06,1.29,24.13,24.13,0,0,0,5.06-3c0-3-.22-6.06-.27-9.06l.34.32c-3.35-.07-6.69-.17-10-.34Z" style="opacity: 0.1; transform-origin: 399.603px 164.373px;" class="animable"></path></g><path d="M406.93,137.25c21.76,14.25,42.9,38.34,44.38,53.8,1.46,15.26-4,14.23-5.5,14.27-9.28.19-33.34-38.63-41.51-55.36C396.84,134.7,401.55,133.72,406.93,137.25Z" style="fill: rgb(146, 227, 169); transform-origin: 425.995px 170.438px;" id="el58vyr0hzka9" class="animable"></path><path d="M432.52,194.45c-1.24-1.84-2.5-3.64-3.71-5.49l-3.68-5.51c-2.43-3.68-4.89-7.34-7.26-11.06s-4.8-7.39-7.15-11.13c-1.18-1.86-2.34-3.73-3.47-5.63s-2.25-3.79-3.34-5.71a119.19,119.19,0,0,0,6.1,11.77c2.21,3.83,4.58,7.56,7,11.29s4.91,7.35,7.49,10.94S429.67,191.06,432.52,194.45Z" style="fill: rgb(38, 50, 56); transform-origin: 418.215px 172.185px;" id="eliv9y1bim73" class="animable"></path><path d="M406.5,154.85a16.9,16.9,0,0,0-1.43-1.88c-.25-.3-.5-.6-.77-.88s-.52-.59-.82-.86a5.91,5.91,0,0,0,1.19,2.08A6.47,6.47,0,0,0,406.5,154.85Z" style="fill: rgb(38, 50, 56); transform-origin: 404.99px 153.04px;" id="ely96sum9yjee" class="animable"></path><g id="elikaqnqqcjhp"><path d="M384.07,139.27c.82,10,8.14,9.21,14,3.23a18.41,18.41,0,0,0,4.1-5.6,14.92,14.92,0,0,1-3.54,6.13c-2.38,2.58-5.68,5.26-9.46,4.86-4-.52-5.53-5.2-5.08-8.62Z" style="opacity: 0.1; transform-origin: 393.092px 142.415px;" class="animable"></path></g><path d="M384.63,171.36a151.35,151.35,0,0,0,11.69-20.44A46.12,46.12,0,0,0,400,139.8c1.43-7.41-3-11.41-9.83-7.49-5.78,3.28-5.76,9.59-6,15.48-.21,7.85.07,15.72.44,23.57Zm0,0c-.58-7.84-1-15.71-.78-23.58.17-6.06.16-12.43,6.08-15.87,7.14-4.19,12.06.17,10.49,8-2.51,11.6-9.24,21.8-15.79,31.49Z" style="fill: rgb(38, 50, 56); transform-origin: 392.252px 150.843px;" id="eldzcldkqxv67" class="animable"></path><path d="M384.15,171.73a.51.51,0,0,0,.58.43.52.52,0,0,0,.43-.59.51.51,0,1,0-1,.16Zm.25,0a.26.26,0,1,1,.29.21A.25.25,0,0,1,384.4,171.69Z" style="fill: rgb(55, 71, 79); transform-origin: 384.653px 171.623px;" id="elvlgogv652uq" class="animable"></path><path d="M384.11,175.76s2.27-.86,2-2.61c-.12-.75,0-1.45-.53-1.63a5.92,5.92,0,0,0-1.42.17,2.24,2.24,0,0,0-1.33.71c-1.09,1.07-.24,4.86,0,6.36l1.71-.26Z" style="fill: rgb(55, 71, 79); transform-origin: 384.21px 175.14px;" id="elr5km74l4k7l" class="animable"></path><path d="M385.54,175.54s2.27-.86,2-2.62-2.19-1.81-3.28-.74-.24,4.85,0,6.36l1.09-.17Z" style="fill: rgb(69, 90, 100); transform-origin: 385.64px 175.004px;" id="elfvhh0psv0lr" class="animable"></path><polygon points="382.56 173.76 383.45 173.62 383.51 173.14 382.62 173.28 382.56 173.76" style="fill: rgb(38, 50, 56); transform-origin: 383.035px 173.45px;" id="eltw6vdlwkika" class="animable"></polygon><path d="M388.22,144.41c3.69,1.4,9.78-4.23,11.81-9.09.14-.33-1.63-12.78-1.89-15.3-.06-.52-15.43,5.5-15.43,5.5a40.36,40.36,0,0,1,2.54,9.54,4.52,4.52,0,0,1,0,1v.18C385.13,138.28,386.32,143.7,388.22,144.41Z" style="fill: rgb(173, 99, 89); transform-origin: 391.374px 132.308px;" id="elbyqb77cqcil" class="animable"></path><path d="M385.25,136.28a10.33,10.33,0,0,0,1.63-.09c8.29-1.05,10.2-11.53,10.65-16.1-2.86.75-14.83,5.43-14.83,5.43a40.15,40.15,0,0,1,2.55,9.54,4.52,4.52,0,0,1,0,1C385.26,136.15,385.24,136.21,385.25,136.28Z" style="fill: rgb(38, 50, 56); transform-origin: 390.115px 128.186px;" id="elg93iucws0d" class="animable"></path><path d="M397.51,100.23c2.67,5.26,2.58,21.83-.74,26.11-4.81,6.21-14.11,8.36-19.74,2.25-5.45-5.92-4.95-27.52-1.11-31.55C381.58,91.09,393.55,92.46,397.51,100.23Z" style="fill: rgb(173, 99, 89); transform-origin: 386.192px 112.789px;" id="eluwz92kdjiei" class="animable"></path><path d="M384,112.69s.09,0,.09.1c0,1.11.11,2.4,1.12,2.77,0,0,0,.07,0,.06C384,115.45,383.77,113.74,384,112.69Z" style="fill: rgb(38, 50, 56); transform-origin: 384.565px 114.155px;" id="el0vup3gbt8t0b" class="animable"></path><path d="M385,111.52c1.8-.13,1.93,3.47.27,3.6S383.48,111.64,385,111.52Z" style="fill: rgb(38, 50, 56); transform-origin: 385.187px 113.32px;" id="eldbtd9gsx4a6" class="animable"></path><path d="M377.4,113s-.08,0-.08.1c.08,1.11,0,2.4-1,2.81,0,0,0,.07,0,.06C377.54,115.7,377.66,114,377.4,113Z" style="fill: rgb(38, 50, 56); transform-origin: 376.917px 114.485px;" id="elb6r5c2atrv9" class="animable"></path><path d="M376.36,111.82c-1.8-.07-1.8,3.54-.13,3.6S377.87,111.88,376.36,111.82Z" style="fill: rgb(38, 50, 56); transform-origin: 376.241px 113.62px;" id="eldnw8wlx52pg" class="animable"></path><path d="M385.92,109.33a14.58,14.58,0,0,1-1.47-.13,2.33,2.33,0,0,1-1.48-.41.76.76,0,0,1-.12-.92,1.9,1.9,0,0,1,1.8-.67,2.77,2.77,0,0,1,1.85.76A.81.81,0,0,1,385.92,109.33Z" style="fill: rgb(38, 50, 56); transform-origin: 384.736px 108.251px;" id="elzc6i5e2oiic" class="animable"></path><path d="M375,111.06c.51,0,1-.12,1.47-.18a2.43,2.43,0,0,0,1.46-.48.77.77,0,0,0,.08-.93,1.88,1.88,0,0,0-1.82-.59,2.74,2.74,0,0,0-1.82.84A.81.81,0,0,0,375,111.06Z" style="fill: rgb(38, 50, 56); transform-origin: 376.151px 109.947px;" id="elogtlrld9jl" class="animable"></path><path d="M385.77,123.19c-.25.28-.49.66-.89.72a2.84,2.84,0,0,1-1.22-.19s-.07,0,0,.06a1.48,1.48,0,0,0,1.45.5,1.18,1.18,0,0,0,.81-1C385.89,123.17,385.8,123.15,385.77,123.19Z" style="fill: rgb(38, 50, 56); transform-origin: 384.774px 123.742px;" id="elydhvesi790a" class="animable"></path><path d="M384.57,119.58a3.78,3.78,0,0,1-2.41,1.87,4.74,4.74,0,0,1-1.36.16,1.11,1.11,0,0,1-.26,0l-.25,0a.28.28,0,0,1-.24-.23h0v-.12h0v-.1c-.09-.86-.1-2.17-.1-2.17-.3.18-1.85,1-1.85.57a57,57,0,0,1,.64-11.59c0-.12.2-.1.2,0,.19,3.58-.25,7.16-.12,10.76a6.46,6.46,0,0,1,1.75-.67c.12,0,0,2.53,0,2.91a.1.1,0,0,0,0,0,5.3,5.3,0,0,0,3.84-1.5C384.54,119.42,384.63,119.49,384.57,119.58Z" style="fill: rgb(38, 50, 56); transform-origin: 381.313px 114.752px;" id="elya6cyphdhui" class="animable"></path><path d="M381.39,121.34a4.23,4.23,0,0,0,1.81,1.11,1.89,1.89,0,0,0,1.15,0c.8-.31.74-1.07.51-1.7a4.62,4.62,0,0,0-.47-1A5.43,5.43,0,0,1,381.39,121.34Z" style="fill: rgb(38, 50, 56); transform-origin: 383.2px 121.145px;" id="elxb8bc0n2qb" class="animable"></path><path d="M383.2,122.45a1.89,1.89,0,0,0,1.15,0c.8-.31.74-1.07.51-1.7A2,2,0,0,0,383.2,122.45Z" style="fill: rgb(255, 155, 188); transform-origin: 384.105px 121.645px;" id="el7vbtzc1hfy9" class="animable"></path><g id="el3d1zwruzkd5"><path d="M399.3,115.9c-.27,4.51-1.1,8.6-2.53,10.44-4.81,6.2-14.11,8.36-19.73,2.25-1.89-2-3.06-6-3.63-10.35,2.2,3.56,5.59.21,5.59.21l1.95-.24c2.51,2.87,8.12,1.28,10.75-1.13,1.92-1.75,2.64-7,2.64-7Z" style="fill: rgb(38, 50, 56); opacity: 0.3; transform-origin: 386.355px 121.153px;" class="animable"></path></g><path d="M399.61,113.71c-2.31,1-4.56-1.63-5.36-3s-.78-9.84-2.23-11.93-4.09-3-6-2.18-4.11,3.74-5.58,3.79-2.22-3-3.23-2.92c-2.22.29-3.88,6.07-4,8.56,0,0-1.39-10.44,9.15-12.74,10.28-2.25,14.53,4.46,15.84,7.48C400.74,106.5,399.61,113.71,399.61,113.71Z" style="fill: rgb(38, 50, 56); transform-origin: 386.505px 103.384px;" id="elp0vuyoari3" class="animable"></path><path d="M375,96.53c1.65-.18,10.54,1.23,14.32,3.47s10.16,8.92,10.49,9.27,4.05-14.12-7.53-18.34C379.7,86.34,375,96.53,375,96.53Z" style="fill: rgb(146, 227, 169); transform-origin: 387.819px 99.5091px;" id="elfjpeal50wli" class="animable"></path><path d="M399.23,108.58s-6.55-11.41-10.62-14.35-13.71-5.54-20.11-3.65c-5,1.47,5.76,9,5.76,9a3.33,3.33,0,0,1,2.14-2.05c3.1-.79,8.59.83,11.65,2.32C391.89,101.76,399.23,108.58,399.23,108.58Z" style="fill: rgb(146, 227, 169); transform-origin: 383.202px 99.2588px;" id="elutaavmkbnz" class="animable"></path><g id="el3rmw773vczg"><path d="M399.23,108.58s-6.55-11.41-10.62-14.35-13.71-5.54-20.11-3.65c-5,1.47,5.76,9,5.76,9a3.33,3.33,0,0,1,2.14-2.05c3.1-.79,8.59.83,11.65,2.32C391.89,101.76,399.23,108.58,399.23,108.58Z" style="opacity: 0.2; transform-origin: 383.202px 99.2588px;" class="animable"></path></g><path d="M395.09,113.5s2.71-5.83,5.3-5,1.18,8.89-1.41,10.4a2.85,2.85,0,0,1-4-.84Z" style="fill: rgb(173, 99, 89); transform-origin: 398.372px 113.903px;" id="elxdcxw9dj5d" class="animable"></path><path d="M399.93,110.83s.06,0,0,.08c-1.8,1.12-2.5,3.1-2.89,5.09a1.57,1.57,0,0,1,2.25-.83c.06,0,0,.11,0,.11a1.75,1.75,0,0,0-1.8.94,8.49,8.49,0,0,0-.64,1.7c-.06.19-.39.15-.36-.06v0C396,115.35,397.31,111.55,399.93,110.83Z" style="fill: rgb(38, 50, 56); transform-origin: 398.173px 114.436px;" id="el2oe9a7ajnbx" class="animable"></path><g id="elmsojaa844gj"><rect x="360.8" y="156.44" width="41.62" height="54.19" style="fill: rgb(146, 227, 169); transform-origin: 381.61px 183.535px; transform: rotate(-15.97deg);" class="animable"></rect></g><g id="elrqrd7gc0otc"><rect x="360.8" y="156.44" width="41.62" height="54.19" style="opacity: 0.4; transform-origin: 381.61px 183.535px; transform: rotate(-15.97deg);" class="animable"></rect></g><g id="el6qnsymae4ni"><rect x="364.52" y="154.65" width="19.73" height="5.98" style="fill: rgb(199, 199, 199); transform-origin: 374.385px 157.64px; transform: rotate(-15.9deg);" class="animable"></rect></g><polygon points="378.74 153.29 376.4 153.95 375.65 151.3 369.97 152.92 370.73 155.57 368.39 156.24 367.02 151.41 377.4 148.45 378.74 153.29" style="fill: rgb(199, 199, 199); transform-origin: 372.88px 152.345px;" id="elm2htmmg4k1" class="animable"></polygon><path d="M448.54,204.56c-6.26,2.94-16,.39-42-8.47-3.59-1.23-1.75-28.9,2.15-27.79,4.91,1.4,23.69,7.9,25,8.55C444.81,182.33,452.79,202.57,448.54,204.56Z" style="fill: rgb(173, 99, 89); transform-origin: 427.158px 186.996px;" id="eld3ww586eigu" class="animable"></path><path d="M418.62,173.42s-8.65-6.58-14.27-8.63A38.45,38.45,0,0,0,386,163.27c-6.63,1-21.94,8.13-20.67,12.9,1.16,4.31,16.44-3.73,16.44-3.73s-16.93,5.63-14.59,10.57,19.55-5.4,19.55-5.4-17.27,6.17-14.05,10.88c2.44,3.56,18.56-4.93,18.56-4.93s-14.81,5.41-12.47,9.18c2.6,4.16,18-2.74,18-2.74,7.58,8.58,14.87,9.39,20,9.49C418,199.51,418.62,173.42,418.62,173.42Z" style="fill: rgb(173, 99, 89); transform-origin: 391.938px 181.137px;" id="elfbtcgkbqba" class="animable"></path><path d="M387.54,170.12c-2,.59-4.06,1.17-6,1.94s-3.89,1.6-5.76,2.54a36,36,0,0,0-6.94,4.37c4-2.77,11-5.62,12.92-6.38s3.87-1.63,5.82-2.4C387.62,170.18,387.58,170.11,387.54,170.12Z" style="fill: rgb(38, 50, 56); transform-origin: 378.218px 174.545px;" id="elhecrf38yrvc" class="animable"></path><path d="M390.43,177.13c-2.54.86-5.09,1.62-7.59,2.6s-4.77,2.11-7.18,3.25c-.19.09-.08.16.11.08,2.46-1,4.81-1.82,7.28-2.83s4.91-2.12,7.4-3C390.49,177.17,390.47,177.11,390.43,177.13Z" style="fill: rgb(38, 50, 56); transform-origin: 383.016px 180.111px;" id="ely71nmu0cng" class="animable"></path><path d="M394,182.69a60,60,0,0,0-11.3,4.87c-.18.1,0,.17.16.09,3.73-1.69,6.64-3,11.18-4.82C394.1,182.8,394.08,182.67,394,182.69Z" style="fill: rgb(38, 50, 56); transform-origin: 388.35px 185.186px;" id="elbsr5uhy22d9" class="animable"></path><path d="M417.57,170.06l1.11,33s2.32.56,6.42,1.3c0,0,4.66,3.12,6.91,3.42,7.17.95,15-1,17-3.53,3.85-5-4.83-21.55-12.5-26.5C433.3,175.66,417.57,170.06,417.57,170.06Z" style="fill: rgb(146, 227, 169); transform-origin: 433.762px 189.042px;" id="el95aaawa2b5g" class="animable"></path><path d="M417.61,171.16l0-1.1-.07.06c2.64,1.06,5.3,2.11,7.93,3.21s5.26,2.17,7.82,3.39a31.53,31.53,0,0,1,3.73,2,24.47,24.47,0,0,1,3.29,2.63,26.89,26.89,0,0,1,5.07,6.78,22.44,22.44,0,0,0-4.64-7.21,20.19,20.19,0,0,0-3.31-2.8,35.23,35.23,0,0,0-3.79-2.1c-2.61-1.21-5.26-2.27-7.94-3.28s-5.39-1.9-8.13-2.71l-.08,0v.08Z" style="fill: rgb(38, 50, 56); transform-origin: 431.435px 179.08px;" id="eltfxu3hvgsw" class="animable"></path><path d="M424.82,176.08c-.05,1.65,0,3.31.09,5s.12,3.3.21,5c.18,3.3.37,6.6.61,9.9q.09,1.35.21,2.7c.09,1,.29,1.92.37,2.88a.06.06,0,0,0,.12,0c0-.81.06-1.62.05-2.44s-.05-1.68-.09-2.52c-.07-1.65-.14-3.3-.23-4.95-.17-3.3-.36-6.6-.64-9.9-.16-1.86-.27-3.74-.53-5.58A.09.09,0,0,0,424.82,176.08Z" style="fill: rgb(38, 50, 56); transform-origin: 425.641px 188.824px;" id="elmi18acvboq" class="animable"></path><path d="M418.58,200.1c.15,1,.27,1.94.34,2.92l-.19-.23a61.08,61.08,0,0,1,6.58,1.26,31.34,31.34,0,0,0,4.66,3,16,16,0,0,1-5.08-2.47,58.3,58.3,0,0,1-6.26-1.36l-.19,0c0-1,.06-2.07.14-3.11Z" style="fill: rgb(38, 50, 56); transform-origin: 424.205px 203.575px;" id="el8wgrp0onkxc" class="animable"></path></g><g id="freepik--character-1--inject-89" class="animable" style="transform-origin: 193.17px 300.687px;"><path d="M258.09,457.31c-2.52.86-74.89,1.41-77.67-.31-1-.65-1.75-11.18-2.23-23.94-.1-2.75,5.66-47.07,5.66-47.07l46-.5-5,47.08s27.81,12.19,30.65,14.4S260.61,456.44,258.09,457.31Z" style="fill: rgb(247, 169, 160); transform-origin: 218.684px 421.807px;" id="elzx7ee21ak2i" class="animable"></path><path d="M258.09,457.31c-2.52.86-74.9,1.41-77.67-.31-1-.65-1.75-11.19-2.23-23.94,0-.63.26-3.38.7-7.28h46.68l-.72,6.79s27.81,12.18,30.64,14.4S260.61,456.44,258.09,457.31Z" style="fill: rgb(235, 235, 235); transform-origin: 218.682px 441.952px;" id="elb6vmm07dd5" class="animable"></path><path d="M258.09,457.22c-2.56.89-75.9,1.76-78.72,0-1.07-.65-2.31-11.94-1.45-24.46l47.29-.51s27.31,12.25,30.2,14.48S260.64,456.33,258.09,457.22Z" style="fill: rgb(146, 227, 169); transform-origin: 218.407px 445.245px;" id="elh19w75qw8r" class="animable"></path><path d="M257,454.3c-12.3-.16-61.92.37-74.09,1.15-.1,0-.1.08,0,.08,12.19.42,61.8-.51,74.09-1C257.26,454.49,257.26,454.3,257,454.3Z" style="fill: rgb(38, 50, 56); transform-origin: 220.015px 454.954px;" id="elgcwpod615s" class="animable"></path><path d="M250.66,444.17a9.91,9.91,0,0,0-7.32,3.09,9.65,9.65,0,0,0-2.67,6.6c0,.07.14.07.15,0a11.41,11.41,0,0,1,9.84-9.53C250.76,444.32,250.76,444.17,250.66,444.17Z" style="fill: rgb(38, 50, 56); transform-origin: 245.702px 449.041px;" id="elgweu83pji7p" class="animable"></path><path d="M229.08,433.46c-4.93,0-10.61,1.79-13.62,5.86-.12.15.11.32.25.24a68,68,0,0,1,13.46-5.5A.31.31,0,0,0,229.08,433.46Z" style="fill: rgb(255, 255, 255); transform-origin: 222.399px 436.52px;" id="eluyf352hl4am" class="animable"></path><path d="M232.89,434.9c-4.92,0-10.6,1.79-13.61,5.85-.12.16.11.32.25.24A68.28,68.28,0,0,1,233,435.5.31.31,0,0,0,232.89,434.9Z" style="fill: rgb(255, 255, 255); transform-origin: 226.223px 437.956px;" id="el9k4fe8njyij" class="animable"></path><path d="M236.71,436.33c-4.92,0-10.61,1.8-13.62,5.86-.11.15.11.32.26.24a67.84,67.84,0,0,1,13.45-5.49A.31.31,0,0,0,236.71,436.33Z" style="fill: rgb(255, 255, 255); transform-origin: 230.047px 439.39px;" id="elp1s5e9ghnhk" class="animable"></path><path d="M240.53,437.77c-4.93,0-10.61,1.79-13.62,5.85-.12.16.11.32.25.25a67.72,67.72,0,0,1,13.46-5.5A.31.31,0,0,0,240.53,437.77Z" style="fill: rgb(255, 255, 255); transform-origin: 233.849px 440.828px;" id="elzwmpvxgo4jk" class="animable"></path><path d="M185.9,443.74c-5.52.08-5.4,8.66.13,8.58S191.43,443.66,185.9,443.74Z" style="fill: rgb(255, 255, 255); transform-origin: 185.967px 448.03px;" id="el99cw377hs7" class="animable"></path><path d="M234.24,420.26c-2.52-2-5.63,0-7.14,2.19a25.72,25.72,0,0,0-4.32,12.63.12.12,0,0,0,.15.14.6.6,0,0,0,.89.39c3.48-2.46,7.5-4.67,10.11-8.13C235.46,425.46,236.62,422.19,234.24,420.26Zm-5.91,10.54c-1.68,1.25-3.41,2.41-5.05,3.73A77.54,77.54,0,0,1,226,427.2a27.31,27.31,0,0,1,1.76-3.34c1.05-1.63,5.83-5.81,6.38-.46C234.42,426.35,230.33,429.3,228.33,430.8Z" style="fill: rgb(255, 255, 255); transform-origin: 229.189px 427.564px;" id="el2yvjyi65fic" class="animable"></path><path d="M210.57,437.05c4.29.61,8.7-.66,12.9-1.36a.61.61,0,0,0,.36-.91.12.12,0,0,0,0-.2,25.74,25.74,0,0,0-12-5.91c-2.6-.47-6.26.27-6.61,3.48C204.94,435.2,208.07,436.7,210.57,437.05Zm-3-2.76c-3.38-4.18,3-4.6,4.85-4.18a28.34,28.34,0,0,1,3.6,1.13,76.91,76.91,0,0,1,7.07,3.3c-2.08.22-4.13.61-6.21.91C214.41,435.8,209.43,436.59,207.57,434.29Z" style="fill: rgb(255, 255, 255); transform-origin: 214.562px 432.876px;" id="elrkia38jio8q" class="animable"></path><g id="elsfmeh8qbq4"><path d="M219.68,458.21c-19.29.12-38.88-.09-40.31-1-1.08-.65-2.31-11.95-1.45-24.46l12.16-.13Z" style="opacity: 0.1; transform-origin: 198.655px 445.43px;" class="animable"></path></g><path d="M133.83,221.94s-14.15,18.78-7.34,30.14c16.8,28,62.82,70.74,63.69,76.14,1.35,8.42-11.18,80-12.29,90.25-.61,5.66-1.11,11.19-1.11,11.19h49.95s1.13-4.45,2.07-9.53c4.63-25.11,13.89-86.79,6-104.53C228,300.25,182,248.32,173.4,234.79c-1.44-2.25,1.11-13,1.11-13Z" style="fill: rgb(146, 227, 169); transform-origin: 181.254px 325.725px;" id="elu2c3nipjtl" class="animable"></path><g id="elxtc5syi648t"><path d="M133.83,221.94s-14.15,18.78-7.34,30.14c16.8,28,62.82,70.74,63.69,76.14,1.35,8.42-11.18,80-12.29,90.25-.61,5.66-1.11,11.19-1.11,11.19h49.95s1.13-4.45,2.07-9.53c4.63-25.11,13.89-86.79,6-104.53C228,300.25,182,248.32,173.4,234.79c-1.44-2.25,1.11-13,1.11-13Z" style="opacity: 0.5; transform-origin: 181.254px 325.725px;" class="animable"></path></g><path d="M186,422.63c3.39-28.54,8.08-61.93,11.32-90.33a55.71,55.71,0,0,0,.4-5.57c-2.44-3.35-7-7.55-9.9-10.67-16.25-16.76-32.82-33.5-46.06-52.83-4.4-6.81-9.15-14.07-10.08-22.3,0-3.55,1.3-6.94,2.62-10.18q1.36-3.24,3-6.32a55.47,55.47,0,0,0-4.88,13.06,12.3,12.3,0,0,0,.34,6.8c3.71,11.05,11.22,20.33,18.39,29.38q4.44,5.4,9.12,10.59c9.28,10.48,19.08,20.46,28.93,30.42,3.31,3.41,6.62,6.58,9.66,10.31a3.61,3.61,0,0,1,.73,1.33,42.49,42.49,0,0,1-.41,6.18c-3.47,29.23-8.42,61.09-13.21,90.13Z" style="fill: rgb(146, 227, 169); transform-origin: 165.635px 323.53px;" id="elce2444ux0ed" class="animable"></path><g id="el8pwtdcqu6px"><path d="M176.49,311.73c-15.17-16.34-38.93-41.19-50-59.65-6.8-11.36,7.34-30.14,7.34-30.14l20-.08Z" style="opacity: 0.1; transform-origin: 150.565px 266.795px;" class="animable"></path></g><path d="M193.58,457.82c-2.5.83-75.84.44-78.57-1.28a1,1,0,0,1-.28-.43c-.86-2.18.48-11.52.16-22.95,0-.73,6.45-45.83,6.45-45.83l45.14-.07L161,433.09s27.35,12.29,30.13,14.5S196.07,457,193.58,457.82Z" style="fill: rgb(247, 169, 160); transform-origin: 154.556px 422.75px;" id="elf17ipkufxh" class="animable"></path><path d="M193.58,457.82c-2.51.83-75.84.44-78.57-1.28a1,1,0,0,1-.28-.43c-.86-2.18.48-11.52.16-22.95,0-.22.44-3.51,1.1-8.23h46l-1,8.16s27.35,12.29,30.13,14.5S196.07,457,193.58,457.82Z" style="fill: rgb(235, 235, 235); transform-origin: 154.555px 441.585px;" id="elumfn64iimxa" class="animable"></path><path d="M193.83,458.08c-2.57.83-75.91.14-78.7-1.66-1-.67-2-12-.92-24.49l47.28.5s27.06,12.83,29.89,15.13S196.4,457.24,193.83,458.08Z" style="fill: rgb(146, 227, 169); transform-origin: 154.357px 445.179px;" id="eljekmdb4jjk" class="animable"></path><path d="M192.81,455.13c-12.29-.42-61.91-.94-74.09-.42-.1,0-.1.07,0,.08,12.18.68,61.8.8,74.1.54C193.07,455.33,193.07,455.14,192.81,455.13Z" style="fill: rgb(38, 50, 56); transform-origin: 155.826px 454.974px;" id="el6m1mgfvdtc4" class="animable"></path><path d="M186.69,444.87a9.9,9.9,0,0,0-7.38,2.94,9.48,9.48,0,0,0-2.81,6.54c0,.07.13.07.15,0a11.4,11.4,0,0,1,10-9.32A.08.08,0,0,0,186.69,444.87Z" style="fill: rgb(38, 50, 56); transform-origin: 181.626px 449.633px;" id="elfmhfcu8lfll" class="animable"></path><path d="M165.34,433.7c-4.92-.11-10.64,1.57-13.74,5.57-.12.15.1.32.25.25a68.18,68.18,0,0,1,13.57-5.21A.31.31,0,0,0,165.34,433.7Z" style="fill: rgb(255, 255, 255); transform-origin: 158.609px 436.616px;" id="el0tscsnsec26" class="animable"></path><path d="M169.12,435.22c-4.92-.11-10.64,1.57-13.74,5.57-.11.15.11.32.25.24a67.77,67.77,0,0,1,13.57-5.2A.31.31,0,0,0,169.12,435.22Z" style="fill: rgb(255, 255, 255); transform-origin: 162.391px 438.133px;" id="elx43w8mix68j" class="animable"></path><path d="M172.91,436.74c-4.92-.12-10.64,1.57-13.74,5.56-.12.16.1.33.25.25A68.18,68.18,0,0,1,173,437.34.31.31,0,0,0,172.91,436.74Z" style="fill: rgb(255, 255, 255); transform-origin: 166.169px 439.652px;" id="eljie2drztu3" class="animable"></path><path d="M176.69,438.25c-4.92-.11-10.64,1.57-13.73,5.57-.12.15.1.32.24.25a68.41,68.41,0,0,1,13.57-5.21A.31.31,0,0,0,176.69,438.25Z" style="fill: rgb(255, 255, 255); transform-origin: 169.964px 441.166px;" id="elzv639ghxrcd" class="animable"></path><path d="M122,443.06c-5.52,0-5.59,8.55-.06,8.58S127.49,443.1,122,443.06Z" style="fill: rgb(255, 255, 255); transform-origin: 121.964px 447.35px;" id="elkk0uhsny9a8" class="animable"></path><path d="M170.78,420.62c-2.47-2.09-5.63-.1-7.18,2A25.8,25.8,0,0,0,159,435.19c0,.11.07.15.15.15a.6.6,0,0,0,.88.4c3.53-2.39,7.59-4.51,10.28-7.91C171.89,425.85,173.12,422.6,170.78,420.62ZM164.64,431c-1.7,1.22-3.46,2.35-5.12,3.63.9-2.44,1.7-4.91,2.84-7.27a29.47,29.47,0,0,1,1.83-3.3c1.09-1.61,6-5.68,6.4-.32C170.83,426.71,166.68,429.57,164.64,431Z" style="fill: rgb(255, 255, 255); transform-origin: 165.54px 427.775px;" id="elfgeobfh2i4q" class="animable"></path><path d="M146.76,436.9c4.28.7,8.71-.48,12.93-1.09a.59.59,0,0,0,.37-.89.13.13,0,0,0,0-.21,25.82,25.82,0,0,0-11.85-6.17c-2.58-.52-6.26.14-6.67,3.35C141.17,434.93,144.26,436.5,146.76,436.9Zm-2.94-2.83c-3.29-4.25,3-4.53,4.94-4.07a28.29,28.29,0,0,1,3.57,1.21,74.48,74.48,0,0,1,7,3.45c-2.09.17-4.14.52-6.22.77C150.62,435.73,145.63,436.42,143.82,434.07Z" style="fill: rgb(255, 255, 255); transform-origin: 150.83px 432.748px;" id="elnlci6mcm6gn" class="animable"></path><path d="M162.09,431.05l-47.9-.12s-1.25-3.76-.11-10.14c4.46-24.94,16.1-89.18,14.42-94.37-1.86-5.78-15.55-51.83-18.74-61.46-6.86-20.69,1.21-31.68,12-43l52.71-.2s-9.29,21.09-11.62,24.67c-.89,1.36-10.46,5.43-10.46,5.43s18,47.3,23.49,65.25c4.57,14.82-4.13,79.82-8.42,104.67C166.57,427.21,162.09,431.05,162.09,431.05Z" style="fill: rgb(146, 227, 169); transform-origin: 142.197px 326.405px;" id="eltmxl6oqlp8" class="animable"></path><g id="el1vh5q5kia84"><path d="M162.09,431.05l-47.9-.12s-1.25-3.76-.11-10.14c4.46-24.94,16.1-89.18,14.42-94.37-1.86-5.78-15.55-51.83-18.74-61.46-6.86-20.69,1.21-31.68,12-43l52.71-.2s-9.29,21.09-11.62,24.67c-.89,1.36-10.46,5.43-10.46,5.43s18,47.3,23.49,65.25c4.57,14.82-4.13,79.82-8.42,104.67C166.57,427.21,162.09,431.05,162.09,431.05Z" style="opacity: 0.5; transform-origin: 142.197px 326.405px;" class="animable"></path></g><path d="M123.48,241.81c1,0,2.35.57,6.6,1a23.37,23.37,0,0,0,3.55,0,7.64,7.64,0,0,0,3.42-.77,17.15,17.15,0,0,0,4.49-4.42,26.58,26.58,0,0,0,3.59-5.78c.05-.13.23,0,.18.09-.42,1.19-.75,2.4-1.27,3.56a23.64,23.64,0,0,1-1.79,3.13c-1.23,1.86-2.64,3.85-4.67,4.91s-4.82.94-7.14.72c-1.35-.13-6.53-1.14-7.11-2C123.23,242.09,123.29,241.81,123.48,241.81Z" style="fill: rgb(38, 50, 56); transform-origin: 134.3px 238.092px;" id="eli33xf2xxop" class="animable"></path><path d="M163,247.11a88.43,88.43,0,0,0-13.88,6.47c-.18.1-.06.37.12.28,4.68-2,9.45-3.93,14-6.19A.31.31,0,0,0,163,247.11Z" style="fill: rgb(38, 50, 56); transform-origin: 156.204px 250.49px;" id="elqkccyajk4x" class="animable"></path><path d="M167.94,225.16c0-.11-.19-.17-.21,0a100.15,100.15,0,0,1-2.26,10.55c-.42,1.61-3.28,10.46-6.26,9.34-.5-.19-.69-.7-.66-1.42a10.72,10.72,0,0,1,.85-2.72c.64-1.85,1.22-3.71,1.7-5.6a48.68,48.68,0,0,0,1.56-10.73.1.1,0,0,0-.2,0,92,92,0,0,1-3.27,14.65c-.76,2.3-2.72,6.09-.1,6.85s5.47-5.34,6.06-6.92A50.26,50.26,0,0,0,167.94,225.16Z" style="fill: rgb(38, 50, 56); transform-origin: 162.855px 235.313px;" id="elo0wqdomtmb" class="animable"></path><path d="M158.66,245.35a19.94,19.94,0,0,0-1.54,4.76c0,.14.2.17.29.08a23.23,23.23,0,0,0,2-4.38C159.7,245.06,158.93,244.81,158.66,245.35Z" style="fill: rgb(38, 50, 56); transform-origin: 158.297px 247.651px;" id="el9zgfw3dxu5a" class="animable"></path><path d="M124.64,223.23c-14.61,18.61-13,27.51-6.39,48.92,5.18,17.41,11.17,34.54,16.66,51.88a9.12,9.12,0,0,1,.23.9c.34,1.47-.23,3-.35,4.39-3.52,22.66-8,48.94-11.91,71.66-1.22,7.45-3.65,18.58-4.36,26,.1-2.2.25-4.4.56-6.59.56-4,2.24-15.46,2.83-19.61,3-20.47,6.82-45,10-65.28l1-6.52a25.16,25.16,0,0,0,.41-3.49c0-.15-.11-.43-.15-.58-6.64-21.66-14.46-43.09-19.6-65.22-3.84-14.59,1.62-25.66,11.13-36.51Z" style="fill: rgb(146, 227, 169); transform-origin: 123.788px 325.08px;" id="el4c0n1myl1su" class="animable"></path><path d="M211.11,193.42c2.43,18.58,7.8,45.84,10.09,50.85,9.84,21.59,13.32,31.58,14.77,36.22,1.86,6-22.29,20.35-24.45,16.63-1-1.76-13.26-34.18-15.19-47.12-2.82-19-1.2-44.39,1.8-55.38C202.35,179.18,209.67,182.46,211.11,193.42Z" style="fill: rgb(247, 169, 160); transform-origin: 215.47px 240.916px;" id="el32n3l5cl0jl" class="animable"></path><path d="M217.47,223.21l-26.79,11.56s3.95-31.31,8-44C202.9,177.56,208.8,176,212.61,194A284.12,284.12,0,0,1,217.47,223.21Z" style="fill: rgb(69, 90, 100); transform-origin: 204.075px 207.721px;" id="eluka42qrwo4" class="animable"></path><path d="M193.23,228.56c.64-.36,1.34-.63,2-.93l2.07-.93c1.4-.64,2.81-1.24,4.23-1.84,2.82-1.2,5.64-2.41,8.48-3.56.78-.32,1.56-.63,2.35-.93s1.68-.56,2.51-.87c.05,0,.08.05,0,.08-.69.31-1.36.69-2,1s-1.41.65-2.13,1c-1.4.61-2.81,1.22-4.23,1.81-2.79,1.15-5.57,2.33-8.39,3.43l-2.35.91c-.82.32-1.65.69-2.49.94A0,0,0,0,1,193.23,228.56Z" style="fill: rgb(38, 50, 56); transform-origin: 204.075px 224.085px;" id="elm5luy54ed9b" class="animable"></path><g id="el2cnz0vqyghn"><path d="M210,226.46l-19.27,8.31s4-31.31,8-44c1.33-4.18,2.83-7.19,4.39-8.79Z" style="opacity: 0.1; transform-origin: 200.365px 208.375px;" class="animable"></path></g><path d="M117.13,223.25c0,.25,61.75,22.44,62.7,22.22s.87.23,13.08-18.77c5.94-9.23,15.18-23.56,15.74-36,.22-4.83-4.37-13.33-13.43-13.34-11.75,0-24.17,3.26-48.64,20.4C132.34,207.75,117,222.36,117.13,223.25Z" style="fill: rgb(69, 90, 100); transform-origin: 162.893px 211.416px;" id="elbmkc7b2rap6" class="animable"></path><path d="M199.89,195.08c-2.5-1.7-4.15-10-3.27-15.24.06-.37,2.54-2.73,5.42-5.74,1.74-1.83,3.63-3.91,5.23-5.94l10.28,13.07a41.22,41.22,0,0,0-7.34,6.81,5.6,5.6,0,0,0-.57.9c0,.05,0,.1-.09.16C208.57,190.88,203.81,197.73,199.89,195.08Z" style="fill: rgb(247, 169, 160); transform-origin: 206.965px 181.921px;" id="el87rqfhet7zp" class="animable"></path><path d="M208.19,188.14a10.68,10.68,0,0,0,1.36,1,.74.74,0,0,1,.1-.16,4.42,4.42,0,0,1,.56-.9,40.85,40.85,0,0,1,7.34-6.81L208,169.1C206,172.79,201.46,182.6,208.19,188.14Z" style="fill: rgb(38, 50, 56); transform-origin: 211.095px 179.12px;" id="elxjiv6dimt6k" class="animable"></path><path d="M208.21,152.84c-3.38,4.94-5.44,21.64-2.66,26.38,4,6.87,13.11,10.25,19.58,4.83,6.26-5.25,8.56-27.05,5.22-31.62C225.43,145.72,213.21,145.53,208.21,152.84Z" style="fill: rgb(247, 169, 160); transform-origin: 218.066px 167.056px;" id="elbo5a8tuaadr" class="animable"></path><path d="M220.74,167.6s-.1,0-.1.08c-.13,1.11-.46,2.36-1.52,2.58,0,0,0,.06,0,.06C220.37,170.33,220.79,168.67,220.74,167.6Z" style="fill: rgb(38, 50, 56); transform-origin: 219.932px 168.96px;" id="elyvhffotaojf" class="animable"></path><path d="M219.92,166.3c-1.76-.4-2.42,3.14-.79,3.51S221.39,166.63,219.92,166.3Z" style="fill: rgb(38, 50, 56); transform-origin: 219.472px 168.053px;" id="elxeohncm4fqo" class="animable"></path><path d="M227.21,168.82s.07.07.06.11c-.24,1.09-.33,2.38.59,2.93,0,0,0,.08,0,.06C226.66,171.53,226.8,169.81,227.21,168.82Z" style="fill: rgb(38, 50, 56); transform-origin: 227.388px 170.372px;" id="el3ghf5wjwcqx" class="animable"></path><path d="M228.4,167.86c1.79.2,1.26,3.76-.39,3.58S226.9,167.69,228.4,167.86Z" style="fill: rgb(38, 50, 56); transform-origin: 228.258px 169.65px;" id="elrx2p6q9ihb" class="animable"></path><path d="M218.7,165.28a12.77,12.77,0,0,0,1.39.51,2.35,2.35,0,0,0,1.51.25.76.76,0,0,0,.49-.79,1.87,1.87,0,0,0-1.34-1.36,2.77,2.77,0,0,0-2-.09A.81.81,0,0,0,218.7,165.28Z" style="fill: rgb(38, 50, 56); transform-origin: 220.169px 164.864px;" id="elrff4yofqe1" class="animable"></path><path d="M230.2,167a14.63,14.63,0,0,1-1.48,0,2.41,2.41,0,0,1-1.52-.25.79.79,0,0,1-.21-.91,1.9,1.9,0,0,1,1.71-.86,2.77,2.77,0,0,1,1.93.56A.81.81,0,0,1,230.2,167Z" style="fill: rgb(38, 50, 56); transform-origin: 228.942px 166px;" id="eltnsczfavt5s" class="animable"></path><path d="M217.27,177.33c.2.32.39.73.77.85a3.24,3.24,0,0,0,1.24,0,0,0,0,0,1,0,.06,1.47,1.47,0,0,1-1.51.28,1.17,1.17,0,0,1-.65-1.15C217.15,177.29,217.24,177.29,217.27,177.33Z" style="fill: rgb(38, 50, 56); transform-origin: 218.198px 177.961px;" id="el3mg2a74xrqh" class="animable"></path><path d="M219.14,174.33a3.79,3.79,0,0,0,2.11,2.2,5,5,0,0,0,1.32.36l.26,0,.25,0a.28.28,0,0,0,.27-.2h0s0-.07,0-.11h0l0-.1c.21-.83.42-2.12.42-2.12.27.22,1.67,1.27,1.75.83a57.94,57.94,0,0,0,1.07-11.55.11.11,0,0,0-.21,0c-.71,3.51-.8,7.12-1.46,10.66a6.58,6.58,0,0,0-1.63-.92c-.13,0-.35,2.51-.47,2.87l0,0a5.24,5.24,0,0,1-3.57-2.05C219.2,174.17,219.1,174.23,219.14,174.33Z" style="fill: rgb(38, 50, 56); transform-origin: 222.861px 170.226px;" id="eld51ms4knbfg" class="animable"></path><path d="M226.09,156.57a6,6,0,0,1-5.61,1.68,6.12,6.12,0,0,1-4.48-4s-.11,0-.09,0a6.08,6.08,0,0,0,4.45,4.41,6.21,6.21,0,0,0,5.84-2C226.26,156.6,226.16,156.5,226.09,156.57Z" style="fill: rgb(38, 50, 56); transform-origin: 221.063px 156.511px;" id="elfw0qs2hfz9o" class="animable"></path><path d="M221.2,143.25a6.47,6.47,0,0,0-6.91,2,8.9,8.9,0,0,0-1.87,4c0,.07.08.09.09,0a8.13,8.13,0,0,1,4.57-5.46,5.43,5.43,0,0,1,7.58,4.71.11.11,0,0,0,.22,0A5.62,5.62,0,0,0,221.2,143.25Z" style="fill: rgb(38, 50, 56); transform-origin: 218.65px 146.128px;" id="el3qcomnz4eh9" class="animable"></path><path d="M239.47,150.56a7.24,7.24,0,0,0-2.84-4.1c-1.93-1.38-4.23-1.34-6.51-1.26a.05.05,0,0,0,0,.1,10,10,0,0,1,5.62,1,7.2,7.2,0,0,1,3.08,3.69,7,7,0,0,1-3.44,8.45,7.1,7.1,0,0,1-5.61.2c-.07,0-.13.08-.05.11a7.11,7.11,0,0,0,9.74-8.19Z" style="fill: rgb(38, 50, 56); transform-origin: 234.67px 152.252px;" id="eldprkk6zo3u4" class="animable"></path><path d="M207,155.4s.68-4.81,2-6.19,4.18-1.49,4.18-1.49,1.95-4,5.88-3.91c3.52.05,5.64,3.33,5.64,3.33s5.24-4.41,10.56-1.22c5,3,3.72,11-1.58,13.12-3.73,1.51-8.4-2-8.4-2-.47,0-5.49,2.6-8.83-2,0,0-3.49,2.29-5.24.34C211.22,155.41,208.6,156.4,207,155.4Z" style="fill: rgb(38, 50, 56); transform-origin: 222.703px 151.613px;" id="ele7uufjkx6pt" class="animable"></path><g id="elyn2ygih52x9"><path d="M212.16,149.23c-.46,3.22-1.71,11.35-2.9,13.12s-3.65,5.71-4.93,6.66c.34-6.24,1.88-13.25,3.88-16.17A11.93,11.93,0,0,1,212.16,149.23Z" style="fill: rgb(38, 50, 56); opacity: 0.2; transform-origin: 208.245px 159.12px;" class="animable"></path></g><path d="M207.55,166.77s-2.09-6.19-4.8-5.59-2.17,8.84.27,10.66a2.9,2.9,0,0,0,4.16-.41Z" style="fill: rgb(247, 169, 160); transform-origin: 204.246px 166.837px;" id="eleesuxsiys5" class="animable"></path><path d="M203,163.54s-.07,0,0,.07c1.69,1.34,2.18,3.41,2.35,5.46A1.61,1.61,0,0,0,203.1,168c-.06,0,0,.12,0,.12a1.78,1.78,0,0,1,1.71,1.15,8.3,8.3,0,0,1,.45,1.78c0,.2.38.2.37,0v0C206.42,168.53,205.52,164.55,203,163.54Z" style="fill: rgb(38, 50, 56); transform-origin: 204.438px 167.37px;" id="elzubrsl9cxsf" class="animable"></path><path d="M223.87,307.33,241.65,305,240.94,288l-15.08-1.88-7.35,18Z" style="fill: rgb(247, 169, 160); transform-origin: 230.08px 296.725px;" id="el1bi85lbjbr5" class="animable"></path><g id="elkkniww8ikbe"><path d="M223.87,307.33,241.65,305,240.94,288l-15.08-1.88-7.35,18Z" style="opacity: 0.1; transform-origin: 230.08px 296.725px;" class="animable"></path></g><ellipse cx="308.63" cy="306.47" rx="22.7" ry="34.01" style="fill: rgb(69, 90, 100); transform-origin: 308.63px 306.47px;" id="el82estuj0ie3" class="animable"></ellipse><ellipse cx="305.18" cy="306.47" rx="20.87" ry="34.01" style="fill: rgb(55, 71, 79); transform-origin: 305.18px 306.47px;" id="elss6matd9l" class="animable"></ellipse><ellipse cx="294.78" cy="306.47" rx="27.81" ry="41.66" style="fill: rgb(69, 90, 100); transform-origin: 294.78px 306.47px;" id="elwte93onabg" class="animable"></ellipse><ellipse cx="290.55" cy="306.47" rx="25.57" ry="41.66" style="fill: rgb(55, 71, 79); transform-origin: 290.55px 306.47px;" id="el44q5fwlx1oh" class="animable"></ellipse><rect x="87.48" y="303.23" width="203.18" height="7.13" style="fill: rgb(166, 166, 166); transform-origin: 189.07px 306.795px;" id="elvqut5th664g" class="animable"></rect><ellipse cx="88.72" cy="306.47" rx="27.81" ry="41.66" style="fill: rgb(69, 90, 100); transform-origin: 88.72px 306.47px;" id="elgx4qosif64s" class="animable"></ellipse><ellipse cx="84.49" cy="306.47" rx="25.57" ry="41.66" style="fill: rgb(55, 71, 79); transform-origin: 84.49px 306.47px;" id="eln07w2s11a5n" class="animable"></ellipse><ellipse cx="79.33" cy="306.47" rx="22.7" ry="34.01" style="fill: rgb(69, 90, 100); transform-origin: 79.33px 306.47px;" id="el4nbwsdhb0nx" class="animable"></ellipse><ellipse cx="75.88" cy="306.47" rx="20.87" ry="34.01" style="fill: rgb(55, 71, 79); transform-origin: 75.88px 306.47px;" id="elxbkpc7o0ycn" class="animable"></ellipse><g id="eltwof145a1j"><rect x="67.48" y="303.23" width="11.39" height="7.13" style="fill: rgb(38, 50, 56); transform-origin: 73.175px 306.795px; transform: rotate(180deg);" class="animable"></rect></g><path d="M242.44,288.94s5.5,3.55,5.95,5.28.82,16.09,0,17-4.53,1.71-4.53,1.71Z" style="fill: rgb(247, 169, 160); transform-origin: 245.658px 300.935px;" id="elvw7y5odw2ae" class="animable"></path><path d="M243.57,286.09s4.08,4.93,4.47,6.68-1.27,19.14-2.09,20-4.59,1.55-4.59,1.55Z" style="fill: rgb(247, 169, 160); transform-origin: 244.729px 300.205px;" id="el5d1ne5onazw" class="animable"></path><path d="M243.17,313.9a9.11,9.11,0,0,0,2.59-1.24,1.55,1.55,0,0,0,.13-.44c.15-.76.59-5,.7-5.85.38-3.14.78-6.27,1.37-9.38,0,1.59-.08,3.17-.19,4.74a60.6,60.6,0,0,1-1.52,10.91c-.49.95-2.15,1-3.08,1.26Z" style="fill: rgb(38, 50, 56); transform-origin: 245.565px 305.445px;" id="elengvy9alj" class="animable"></path><path d="M232.65,271.54S243,283.76,245,287.47s.35,13.69.08,19c-.27,5-1.7,9.56-6.2,9.78s-6.31-1.83-9.08-5.76c-.29-.41,5.36.23,5.35-.27-.11-4-.45-7.08-1.42-9a5.88,5.88,0,0,0-6-3.2c-2.33.5-4.73,3.41-4.52,5,.45,3.33,4.45,6.36,5.67,8.92,1.13,2.4-4.15,7.09-8.69,2.44-4.18-4.28-8.8-6.08-10.1-10.62s-3-20.13-3-20.13Z" style="fill: rgb(247, 169, 160); transform-origin: 226.533px 293.949px;" id="el1fehzna03p5" class="animable"></path><path d="M243.11,314c1.12-1,1.12-2.63,1.28-4.05a104.34,104.34,0,0,1,1.46-13.19c0,3-.16,5.91-.41,8.86a34.06,34.06,0,0,1-1,6.59,3.19,3.19,0,0,1-1.34,1.79Z" style="fill: rgb(38, 50, 56); transform-origin: 244.475px 305.38px;" id="eldxvt7v7zh87" class="animable"></path><path d="M190.82,192.61c-1.52,18.68-4.67,43.77-3.23,49.09,5.92,21.85,8.84,36.41,9.28,41.26.57,6.24-26.05,15.22-27.38,11.13-.63-1.93-9.93-37.08-9.1-50.14,1.22-19.15,12.25-42.77,17.49-52.88C185.25,176.85,191.72,181.6,190.82,192.61Z" style="fill: rgb(247, 169, 160); transform-origin: 178.608px 238.678px;" id="el4nta5jipuju" class="animable"></path><path d="M196.87,283s6.11,6.57,7.8,9.9c3.4,6.67-10.44,27.63-21.3,22.61-3.14-1.45-8.17-9.7-10.41-12.66-4.34-5.72-4.22-14.87-4.22-14.87Z" style="fill: rgb(247, 169, 160); transform-origin: 186.967px 299.639px;" id="el14uu6g6rp42h" class="animable"></path><path d="M203.72,291.27c2.55,3.85,4.94,10.47,4.94,19.39,0,4.94-3.85,9.58-5.7,9.83s-13.64-.05-14.3-4.94,8.61-3.13,9.6-3.46,2.27-.68,2.05-1.59-10.06-16-10.06-16Z" style="fill: rgb(247, 169, 160); transform-origin: 198.643px 305.911px;" id="ellxp2nt9t8b" class="animable"></path><path d="M198.06,295.79c0,.28,5.77,13.29,5.88,18.23s-6.24,9.3-8.11,9.38-13.57-1.31-13.78-6.25,8.86-2.32,9.88-2.54,2.32-.47,2.19-1.4-8.53-16.91-8.53-16.91Z" style="fill: rgb(247, 169, 160); transform-origin: 192.994px 309.597px;" id="elcbdk8ztsutu" class="animable"></path><path d="M203.05,300.35c.53,2.66.93,3,1.15,9.68a15.2,15.2,0,0,1-1,6.33c-.39.93-2,4-3.17,4.76-.14.09-.25-.05-.14-.16.79-.77,2.32-4.39,2.61-5.4.61-2.15,1.18-9.18.39-15.1C202.85,300.39,203,299.92,203.05,300.35Z" style="fill: rgb(38, 50, 56); transform-origin: 202.034px 310.66px;" id="el2nxg72eb5ao" class="animable"></path><path d="M194.3,297.8c-.05.27,2.38,14.29,1.28,19.11s-6.41,6.85-10,6.43c-4-.46-10-4.51-9-9.35s7.69-.71,8.73-.68-3.28-18-3.28-18Z" style="fill: rgb(247, 169, 160); transform-origin: 186.168px 309.352px;" id="elupi0v6h78ne" class="animable"></path><path d="M196.33,301.05a87.67,87.67,0,0,1-1,13.07c-.45,2.31-.94,4.65-2.61,6.38a11.68,11.68,0,0,1-6.3,3c-.14,0-.23-.13-.11-.19,1.89-.91,4.29-1.83,5.63-3.44a14.12,14.12,0,0,0,2.66-6.65,82.38,82.38,0,0,0,1.3-12.23C196,300.3,196.32,300.4,196.33,301.05Z" style="fill: rgb(38, 50, 56); transform-origin: 191.292px 312.008px;" id="el77dr54ve0a2" class="animable"></path><path d="M186.55,297.37a38.39,38.39,0,0,1,.73,14.05c-.65,4.9-6.34,8.86-8.19,8.65s-13.22-3.38-12.66-8.29,8-1.4,9-1.47a3.55,3.55,0,0,0,1-1.94s-1.66-1-3.27-4.34c-2.31-4.73-2.33-11.17-2.33-11.17Z" style="fill: rgb(247, 169, 160); transform-origin: 177.013px 306.469px;" id="elejtlzwh6y9" class="animable"></path><path d="M188.46,304.54c-.26,1.66-1,6.08-1.35,7.72a9,9,0,0,1-7.64,8.07c-2.48.33-6.35-1.71-8.87-3.09a.11.11,0,0,1,.11-.19c1.31.72,6.62,3.19,8.56,2.59,1.26-.39,4.5-1.37,6.14-4.48.67-1.25,2-8.58,2.28-10C188.26,302.2,189,301.34,188.46,304.54Z" style="fill: rgb(38, 50, 56); transform-origin: 179.599px 311.436px;" id="elnm4cu3ycn4" class="animable"></path><path d="M170.87,298.33a30.76,30.76,0,0,0,3.5,7,19.38,19.38,0,0,0,2.24,2.55,8.87,8.87,0,0,0,2.76,2c.13,0,0,.25-.09.2a16.66,16.66,0,0,1-2.82-1.36,16.28,16.28,0,0,0-.26,4.72c0,.13-.17.14-.21,0a4.75,4.75,0,0,1-.4-1.33,5.86,5.86,0,0,1,0-1.45,10,10,0,0,1,.53-2.21,10.54,10.54,0,0,1-2.34-2.51,22.72,22.72,0,0,1-3.06-7.57A.08.08,0,1,1,170.87,298.33Z" style="fill: rgb(38, 50, 56); transform-origin: 175.067px 305.896px;" id="elx7f10dohcd" class="animable"></path><path d="M189.15,222.85l-28.82,4.53S171.94,198,179,186.76c7.37-11.76,13.48-11.81,12.71,6.55A286,286,0,0,1,189.15,222.85Z" style="fill: rgb(69, 90, 100); transform-origin: 176.053px 202.994px;" id="ely0wb0gk6big" class="animable"></path><path d="M164.34,222c.71-.19,1.45-.29,2.18-.41l2.24-.39c1.51-.26,3-.5,4.54-.73,3-.46,6.07-.93,9.1-1.34.84-.11,1.68-.22,2.51-.31s1.78-.13,2.65-.22c.06,0,.06.07,0,.08-.75.14-1.48.34-2.23.48l-2.31.4c-1.51.24-3,.47-4.54.69-3,.43-6,.87-9,1.24l-2.51.3c-.87.1-1.76.26-2.64.29C164.31,222.09,164.29,222,164.34,222Z" style="fill: rgb(38, 50, 56); transform-origin: 175.957px 220.34px;" id="elo68el55zwr" class="animable"></path><path d="M167.89,210.6c.81-1.88,1.55-3.79,2.33-5.68.88-2.15,1.69-4.33,2.55-6.49,0-.05-.08-.09-.1,0-1,2.3-4.58,9.94-5.14,11.24-1.66,3.79-3.31,7.57-4.92,11.37-.91,2.13-1.91,4.6-2.8,6.73a17.73,17.73,0,0,0,3.48-.6c.06,0,.12-.23,0-.22-1.15.19-2.72.25-2.88.29,1.7-3.6,3.33-7.22,4.94-10.86Q166.67,213.48,167.89,210.6Z" style="fill: rgb(38, 50, 56); transform-origin: 166.29px 213.073px;" id="elcc23wj67a5b" class="animable"></path><path d="M190.94,208.88a8.69,8.69,0,0,0,.8-3.28,0,0,0,1,0,0,0,19.34,19.34,0,0,1-.74,2.93c0-.41.05-.83.08-1.24.1-1.49.2-3,.23-4.47,0,0,0,0,0,0-.35,2.58-.58,5.18-.86,7.77s-.57,5.25-.84,7.88c-.15,1.43-.31,2.86-.43,4.3-.46.11-.83.15-1.24.25-.11,0-.09.23,0,.21a8.25,8.25,0,0,0,1.56-.26C190.22,218.31,190.62,213.59,190.94,208.88Z" style="fill: rgb(38, 50, 56); transform-origin: 189.802px 213.026px;" id="el77jqcmeydl4" class="animable"></path></g><g id="freepik--speech-bubble--inject-89" class="animable" style="transform-origin: 333.505px 78.3063px;"><path d="M309.49,80.59A21.84,21.84,0,0,0,346,94.41L356.92,96l-5.47-9.44a21.85,21.85,0,1,0-42-6Z" style="fill: rgb(255, 255, 255); transform-origin: 333.13px 78.3514px;" id="elpsuj375i08p" class="animable"></path><path d="M316,62.55a21.8,21.8,0,0,1,18.3-6.07A21.93,21.93,0,0,1,343.65,60a22.13,22.13,0,0,1,8.19,26.76l0-.38,5.43,9.47.4.7-.79-.12-10.92-1.68.26-.08A22.09,22.09,0,0,1,335.39,100a19,19,0,0,1-3,.31,20.44,20.44,0,0,1-3-.06,22.13,22.13,0,0,1-11.15-4.33,25.33,25.33,0,0,1-2.31-2,25.06,25.06,0,0,1-2-2.28A22,22,0,0,1,316,62.55ZM314,91.62a23.43,23.43,0,0,0,2,2.25,25.12,25.12,0,0,0,2.31,1.93,20.34,20.34,0,0,0,5.27,2.84,21.57,21.57,0,0,0,5.83,1.28,21.32,21.32,0,0,0,3,0,19.75,19.75,0,0,0,3-.36,21.57,21.57,0,0,0,10.45-5.39l.11-.1.15,0L357,95.63l-.39.58-5.5-9.43-.1-.18.08-.2a21.77,21.77,0,0,0,1.53-9.51,21.45,21.45,0,0,0-2.77-9.24,22.41,22.41,0,0,0-6.54-7.13,21.47,21.47,0,0,0-9-3.57,21.87,21.87,0,0,0-9.71.73,22.2,22.2,0,0,0-8.43,5,21.55,21.55,0,0,0-2.15,29Z" style="fill: rgb(38, 50, 56); transform-origin: 333.533px 78.3063px;" id="eltazg60eufa" class="animable"></path><polygon points="328.05 90.78 318.72 81.33 321.85 78.24 327.3 83.75 338.63 66 342.34 68.37 328.05 90.78" style="fill: rgb(146, 227, 169); transform-origin: 330.53px 78.39px;" id="el4vowguiyx9u" class="animable"></polygon></g><defs>     <filter id="active" height="200%">         <feMorphology in="SourceAlpha" result="DILATED" operator="dilate" radius="2"></feMorphology>                <feFlood flood-color="#32DFEC" flood-opacity="1" result="PINK"></feFlood>        <feComposite in="PINK" in2="DILATED" operator="in" result="OUTLINE"></feComposite>        <feMerge>            <feMergeNode in="OUTLINE"></feMergeNode>            <feMergeNode in="SourceGraphic"></feMergeNode>        </feMerge>    </filter>    <filter id="hover" height="200%">        <feMorphology in="SourceAlpha" result="DILATED" operator="dilate" radius="2"></feMorphology>                <feFlood flood-color="#ff0000" flood-opacity="0.5" result="PINK"></feFlood>        <feComposite in="PINK" in2="DILATED" operator="in" result="OUTLINE"></feComposite>        <feMerge>            <feMergeNode in="OUTLINE"></feMergeNode>            <feMergeNode in="SourceGraphic"></feMergeNode>        </feMerge>            <feColorMatrix type="matrix" values="0   0   0   0   0                0   1   0   0   0                0   0   0   0   0                0   0   0   1   0 "></feColorMatrix>    </filter></defs></svg>